<svg xmlns="http://www.w3.org/2000/svg" viewBox="0 0 172.028 193.532" enable-background="new 0 0 172.028 193.532"><style type="text/css">.st0{fill-rule:evenodd;clip-rule:evenodd;fill:#F4F3F0;} .st1{fill:#F4F3F0;} .st2{fill-rule:evenodd;clip-rule:evenodd;fill:#E7E5DF;} .st3{fill:#A79D85;} .st4{fill:#FFFFFF;} .st5{fill:#A5452A;}</style><path d="M93.7 94.75l-.06-.03-.1-.1-.1-.08-.13-.08-.18-.03-.2-.07-.36-.2-.3-.07h-.2l-.06-.03-.03-.02-.1-.03-.17-.02-.06-.07-.1-.07-.1-.04-.13.03-.26.2h-.07l-.16.07h-.03l-.1.04-.07.1-.22.05v.04l-.3.15-.17-.04-.05-.03h.02l-.1-.3-.12-.14-.22-.1-.02-.03-.05-.07-.16-.12-.15-.07-.2-.05-.04-.04-.06-.03-.15-.04h-.14l-.34.15-.3.06-.06.02-.04.02h-.48l-.15-.07h-.27l-.16-.13-.1-.05-.04-.1-.1-.08-.14-.07-.13-.03-.02-.02-.02-.03-.06-.05v-.07l-.03-.03-.04-.06-.15-.17h-.1l-.06-.15-.1-.05-.07-.07-.04-.05v-.05l-.18-.18h-.15l-.1.02v-.05l-.04-.04-.04-.02-.12-.08h-.1l-.2-.1-.4-.08h-.26l-.07-.07-.45-.07h-.32l-.14.04-.08.1-.07.04-.1.07V91.84l-.05-.03-.1-.04-.13-.02-.04-.03-.22-.04-.2-.07-.12-.04h-.16l-.23.08-.06-.02h-.3l-.06-.02h-.15l-3.96.8h-.06l-.13.04-.1-.12-.13-.1-.07-.1-.17-.12-.1-.04-.15-.05h-.2l-.18.02V91.8l-.08-.13-.03-.04-.1-.08-.24-.1-.06-.06-.1-.13-.08-.13-.02-.1-.04-.1-.3-.3-.1-.07-.3-.1-.28-.12-.1-.07-.2-.17-.2-.1-.03-.07-.04-.18-.1-.2-.13-.18-.26-.3-.1-.06-.34-.14-.03-.12-.15-.16-.22-.07-.03-.1-.4-.68-.07-.06-.18-.1-.1-.16-.03-.03-.04-.07-.06-.05-.12-.06-.08-.03-.05-.03-.1-.07-.15.05-.03.02h-.03l-.37-.28-.05-.18-.1-.13-.06-.02-.02-.08-.04-.1-.1-.17.04-.08.03-.06.04-.04.04-.1.02-.16-.14-.14-.1-.04-.05-.02v-.03l-.04-.12-.04-.04h.23l-.4-.65-.1-.15-.02-.05V67.73h10.74l-.16-.5-.1-.2-.13-.2-.3-.3-.1-.13v-.03l.04-.18.1-.2.2-.8.05-.13.4-.56.07-.15.02-.12-.05-.33-.03-.3-.07-.2-.18-.2-.06-.1-.02-.2.07-1.4.1-.2.03-.08-.03-.2-.02-.38-.05-.2-.08-.13-.02-.07v-.05l.1-.22.16-.22.02-.1v-.31l.03-.04.14-.1.1-.18v-.12l-.02-.1-.23-.52v-.1l.02-.9-.12-.02v-.38l.06-.2v-.1l-.06-.1-.07-.12.1.02.13.05V56.67l.05.1-.02.22.1.2.2.04.1-.02.16-.04.13.06.14.03H81.27l.17.12.04.03-.05.07v.13l.02.13.02.04.06.1.1.07-.02.18v.08l-.03.02-.15.23-.2.07-.2.14.02.2.08.2.2.1h.34l.04.04.14.14.16.1.2.02.18-.03.26-.1.12.02.1-.03.08-.1.05-.1.1-.08h.02l.08-.05.14-.12.1-.13.16-.06h.3l.26-.04.44-.2.2-.06.1.02.8-.06.34-.08.46-.22v.06h-.03l-.25.2.12.2-.04.07-.04.14v.14l.06.2.1.2v.02l-.04.08-.02.18.02.1.15.47.08.15.07.07.18.1h.1l.12.12.25.1-.02.05-.03.08.08.17.1.1.06.03.14.03h.16l.1-.05.06-.04h.02l.17-.07.04-.1h.03l.13.1.13.12.23.14.18.05h.35l.16-.02h.04l.26.2.14.07.1.2.2.08.1.02h.94l.03.02.08.04.18.1h.2l.1.04h.15l.16-.06.1-.07h.33l.04.02.02.03.05.06.14.1.25.1.48.04.16.04.03.03.07.06.2.1.26-.05.12-.12.07-.1h.04l.22.04.3-.06.27-.14.23-.2.17-.33.02-.5.05-.16.1-.08.1-.17.03-.22-.05-.18h.04l.26-.07h.18l.06-.04.04.38v.15l.15.62 1.02.63.2.33v.17l.28.8.1.17.33.27.28.3.2.07.3.03h.27l.27-.07.14-.12.04-.04h.05l.28.18v.08l.1.27.28.07.15-.02.3.02.02.06.06.08.24.2.17-.07.1-.07.04-.03h.03v.05l.2.12h.2l.15-.02h.05l.05.03.05.05.4.35.02.06.08.23.08.13.2.23v.05h-.04l-.03.03-.14.2.06.25.15.22.14.14.02.03.02.32.14.1.14.06h.05l.14-.02.05-.02.1-.08.1-.1v-.05h.05l.16.16.35.45.13.13v.13l.02.05.06.08V68l.02.07.05.08.04.05h.03l.05.18.13.08.1.04h.02l.14.7.12.3.2.2.1.14.13.02h.22l.13-.05.02.02.2-.02h.04l.08.1.05.08.14.08.08.02.16-.03.04-.02.1-.07.1-.12.1-.02.34-.23.7-.27.14-.1.33-.3h.03l.05.03.06.06.07.05-.03.03-.04.1v.1l-.1.06-.04.15v.16l.08.17.07.1.1.08.1.06.13.06.23.06h.43l.2-.03.16-.32v-7.1h-.47l-.18.06-.24.15-.17.08-.07-.07-.1-.03-.1-.03h-.04l-.13.02h-.04l-.08.06-.07.08-.07.03-.17.05-.2.12-.07.16-.06.2-.04.23v.16l.05.1.12.13-.08-.03-.22-.12-.07-.02h-.25l-.14-.16-.14-.07h-.5l-.17.05-.05.02-.03-.04-.2.03-.1.03v-.02l-.44-.78-.16-.2-.3-.2-.03-.05-.1-.16-.1-.13-.07-.07-.23-.13v-.2l-.16-.13-.16-.03-.13.03-.08-.02-.2-.1-.1-.2-.16-.13h-.1l-.08-.08-.06-.06-.05-.03-.1-.02-.03-.2-.1-.1-.1-.04-.03-.3v-.05l-.08-.14v-.02l-.02-.07-.1-.36-.05-.06-.1-.12-.07-.15-.04-.07v-.24l.25-.36.08-.06.14-.1-.07-.35.05-.06.06-.05.12-.27v-.23l.05-.1v-.03l.02-.1v-.1l-.05-.2.02-.04.1-.17.03-.08v-.21l.1-.1.1-.28.02-.1v-.28l.03-.07.04-.1.05-.07.05-.05.1-.14.03-.13.02-.03.13-.03.07-.05.1-.1.1-.13.06-.2.03-.1-.1-.1-.05-.06-.05-.04.03-.08v-.18l-.18-.2.02-.05-.04-.1.02-.04.03-.1v-.22l-.05-.1-.07-.12-.03-.08v-.07l.02-.05.04-.26-.07-.23-.07-.02-.03-.07-.07-.06.05-.05.12-.2.07-.27v-.47l-.03-.4.02-.06.13-.3.06-.23.1-.05.1-.24-.1-.12-.1-.1-.06-.13-.03-.03-.07-.04-.06-.08v-.24l-.02-.08-.1-.27.33-.4h-.5l-.02-.1-.05-.12-.02-.03-.07-.08-.1-.1v-.32l-.2-.22-.22-.12-.32-.07-.1-.04.03-.05.16-.12.45-.2.54-.4.9-.88.7-.92.23-.5.05-.6-.18-.38.5-.07 8.85-1.35.07.3.3.57.34.5.4.4.2.17.23.15.27.1.35.02.17-.08.15-.1.08.1.13.1h.24l.3-.12.03.06.1.07.13.05h.22v.02l.04.08.14.1.2.06.03.02.02.06v.14l.05.32.15.2.56.44.14.07h.2l.18-.04.17-.1h.07l.44.13v.38l.18.37.4.1.18-.08.13-.1.04.03.08.06h.02l.08.03h.27l.14.17.12.1.17.07.15.02.72-.02.15.05.12.1.07.2.13.2.16.1.26.03.42.1.34.02.05.05.02.1.04.06.1.05h.04l.1.02.2.13.4.14v.22l.06.16.15.13h.14l-.1.4.14.3.18.07h.15l.03.03.12.08.3.1.15-.27.02-.1h.14l.06.1v.02l-.06.14v.1l.06.13.02.04.1.1.13.08.06.13.05.1.15.1.1.06.1.04.06.15v.1l-.14.2-.13.28-.03.17v.26l.14.2.5.23.1.12.13.1.13.06.06.08.14.1v.1l-.02.26.02.2.16.4.06.08.18.17.1.2.1.16.06.06h.05l.03.06-.04.06-.27.18-.14.1-.27.3-.13.27-.07.04-.07.03-.05.03-.04.05-.2-.02-.12.02-.23.06-.07.03-.2.13-.04.08h-.05l-.18.05-.1.1-.06.14v.25l.17.12.1.02h.03v.04l.03.3.07.2.1.18.1.16.14.15.1.16-.03.05-.05.12-.38.58-.02.1-.05.03-.03.04-.04-.04-.2.3-.03.14.02.45-.03.08-.12.24.08.18.12.07.12.05h.2l.04.82-.02.16-.07.2v.17l.1.16-.06.1-.06.28-.2.45-.03.24.02.2.06.2.2.2.04.06.1.45.14.23.05.08.34.1.35-.1-.02.03-.1.1-.04.05-.03.1v.02l-.1.05-.08.08-.12.17-.08.07-.04.03-.06-.04-.2-.02-.18.04-.12.05-.05.05-.08.1-.06.1-.1.07-.06-.06-.1-.03h-.1l-.18.04-.02-.02-.14-.03-.1.02-.05.02-.08.04-.1.08-.06.1-.18.35-.18.26-.08.16-.04.15.03.52.06.1.1.1.13.08.04.05V67.17l-.13.26-.1.68.02.15.03.15.05.1h-.02l-.17.23-.12.25-.16.64-.04.1-.1.03h-.1l-.1.13-.05.12v.17l-.14.02-.15.08-.07.06h-.04l-.2-.03-.14.13-.06.12-.04.17.13.36.3.06h.18l.05.03.06.08-.05.03-.17.18.08.4.26.1.25.06.13.05v.02l.2.24.03.14.02.06.08.13.07.05h.05l-.02.23.04.12.07.1-3.87 1.33-.4.06-.22.07-.43.2-1.95.64-.9.47-.42.15-1.74.42h-.05l-1.3.3-1.78.64-.9.45-.4.04-.22.06-.05.12v.17l.03.15v.2l.02.25.2.72.18.35.25.16.05.02.03.03.04.12v.08l.02.34.03.1.06.1-.05.13-.07.2.02.13.06.13.1.1-.07.02-.18-.08-.12-.04-.2-.03-.08.04-.08.06-.04.03-.08-.06-.3-.08-.28.03-.24.05-.2.03-.15-.03-.42-.1-.27-.04-.2.04-.26.1-.17.03-.34.1-.1.02-.03-.03-.08-.02-.15-.02-.22.04-.05.02-.24.2-.43.03-.08.02-1.22.55-.25.25h-.04l-.16.08-.13.1-.05.08-.12.23h-.26l-.15.03-.22.1-.18.2-.15.18-.03.06-.07.1-.04.16.02.1.04.1-.02.1-.06.2-.05.33.07.1-.08.2-.03.17.02.18.1.23-.12.2-.04.1-.03.12-.04.04-.2.16-.08.15-.06.03-.1-.02-.3.05-1.96.78-.4.25-.54.45-.43.17-.8.35-.3.18-.27.27-.74 1.1-.1.24-.13.46-.12.23-.23.22-.53.48-1.4 1.47-.12.16-.02.15.02.18-.12.14-.33.33-.1.04h-.27l-.1.05-.12.08-.1-.04-.6.27h-.07l-.1.03-.16.1-.1.08zM119.45 147.46l-.3-.07-1.58-.55-.07-.08-.22-.34-.58-.54-.07-.16v-.06l.05-.15.02-.2-.04-.17-.1-.16-.17-.2-.05-.06-.07-.22-.13-.4-.3.25-.05.06-.03-.27v-1.4l.08-.33.84-1.07.37-.67.3-.7.1-.35.03-.06.42-.37.53-.47.1-.04.14-.04h.1l.05.04.5.34 1.6 1.03.27.08.2-.05.2-.1.03.02.2.12.16.04.04.28.07.25.04.18-.02.1-.16.4-.04.22.07.66.03.2.27.55.03.4v1.08H121.64l.02.42-.1.47-.16 1 .03 1 .03.08zM108.77 13.33l-.26-.06-.1-.02h-.16l-.18.08v-.03l.05-.08.03-.13-.02-.14v-.04l-.07-.1-.05-.03-.03-.18-.1-.1-.06-.04-.1-.06-.18-.05-.25-.03-.08-.03-.33-.13-.12-.02-.44.03-.22.23-.05.28-.15-.03-.1-.06.03-.3-.03-.2-.02-.05-.07-.08.06-.06-.05-.16-.04-.08-.05-.1.02-.03v-.07l.02-.02h.07l.1-.04.15-.07.12-.12.1-.13.06-.12h.05l.34-.08.22-.18.2-.27.1-.3.04-.26v-.23L107 8.8V8.6l.02-.14.08-.17.32-.5.12-.2.05-.08.24-.18.07-.1.16-.3.36-.02h.04l.1-.04.02-.02.04-.04.15-.22.15-.15.18-.12.15-.05.12.03h.14l.15-.04.16-.08.12-.07h.04l.1.03.1.04.16-.02.08-.05.04-.06.05.06-.03.03v.18l.08.2.15.16.04.04.16.04h.2l.17-.06.4-.2.1-.04.05-.1.04-.1h.02l.13-.06.24-.1.13-.1.06-.2.02-.12.1-.02.08-.05.28-.26.1-.12.1-.14V5h.03l.03-.03.1-.1.07-.17v-.1l.16.03.06-.02.02.08.06.07-.02.12.03.1.08.07.08.05h.08v.02l.05.1.1.2.02.04v.04l.02.03v.16l.03.05.08.13.12.08.16.07.08.08.07.05.4.15.08.02v.1l-.1.1.07.1.06.1.1.13.08.1v.12l.1.2.2.15-.07.34v.06l.03.13.03.06-.06.14.03.08.04.17-.05.07-.07.2v.02l-.02.03-.2.3.3.1-.06.18-.08.37.37-.08h.02l.04.08-.17.54-.05.25.02.42-.2.1-.03.02-.23-.12-.13-.04-.1.02-.13.05-.03.03-.08.1-.05.06-.05-.02-.23-.03-.1.06h-.12l-.08-.06-.24-.2-.05-.12-.1-.12-.1.04-.1-.03-.1-.04-.05.03-.06.02-.12.06-.08.1-.1.08-.15.03-.2-.08-.27-.02-.1.18v.1l-.2.2-.05.02-.03-.03-.06-.05-.05-.06-.16-.2-.1-.05-.2-.06h-.04l-.1-.1-.07-.02-.12-.03h-.14l-.1.12-.04.05v.1l-.05.28.04.45-.12.3-.03.6-.02.13-.04.08-.06.1-.06.06-.08.1h-.16l-.1-.04h-.2l-.1.13-.05.12-.25-.08-.1-.03h-.14l-.15.06-.06.04h-.2l-.1.08zM53.92 157.27l-.02-.03-.03-.04-.1-.06-.1-.03h-.12l-.13-.2-.18-.18-1.17-.17-1.08.15-.24.1-.08-.04h-.16l-.07.04-.1.02-.08.02-.1.05-.06-.02-.17-.07h-.18l-.52.06-.23.08v-.02l-.38-.14-.18-.1-.27-.23-.2-.13-.23-.1-.92-.2h-.3l-.08.05-.14.1-.06-.05v-.1l-.05-.28-.25-.16-.12.02-.1.04-.1.04h-.08l-.2.03-.16.06.04-.16.05-.32-.14-.3-.2-.06-.02-.15-.14-.2.15-.05.14-.1.06-.23.02-.22v-.2l-.05-.1-.12-.17-.02-.13-.07-.2-.02-.1-.12-.15-.06-.03-.12-.04h-.14l-.32.1-.04-.02v-.02l-.03-.2v-.1l.02-.2-.12-.25-.24-.07-.02-.06-.05-.1-.14-.18-.1-.04-.1-.02h-.12l-.13.04-.1.04-.1.1-.1-.04-.12.03-.1.06-.02-.03-.1-.03-.14.07-.15.15-.07.06v.08l-.02.25v-.02l-.14.08-.06.05-.05.1-.02.1v.04l-.04.03-.07.1-.03.07v.05l-.2.1-.04.2.02.22.05.14.1.13-.1.1-.02.12v.18l-.02.07-.05-.05-.1-.06h-.15l-.05.03-.1.04-.35.36-.15.05-.18.1-.16.1-.08.03-.17.12-.02.04-.3-.24-.13-.16-.06-.1-.6-.6-.16-.1-.27-.38-.34-.4-.74-.56-.1-.1-.26-.34-.42-.34-.04-.06-.14-.23-.16-.17.02-.07.02-.14-.1-.24-.16-.25-.55-.56-.04-.06v-.35l-.02-.1-.05-.12-.5-.82-.08-.16-.12-.18-.08-.04-.15-.28-.24-.32-.07-.46-.05-.1-.05-.05.02-.2-.06-.4.06-.1-.16-.33v-.07l-.02-.1v-.2l-.04-.24-.15-.2-.1-.03h-.08l-.03-.07v-.03l-.05-.16-.2-.4.03-.18-.08-.18h.15l.07-.2.02-.1.1-.3v-.16l-.02-.05-.13-.4-.06-.34-.16-.3-.2-.22-.24-.16-.28-.1-.02-.36.02-.5-.05-.06.05-.06.07-.2v-.33l-.06-.3-.1-.23-.25-.42.2-.52h-.28l-.2-.24-.07-.12.04-.54v-.08l.14-.23.04-.18v-.16l-.04-.22-.12-.12-.02-.08-.02-.24-.14-.4-.02-.23-.05-.23v-.02l.17-.46-.02-.08.1-.37.02-.28-.06-.3-.2-.4-.05-.2v-.4l-.08-.3-.32-.6-.14-.2-.3-.3-.02-.1-.18-.22.04-.06.05-.12v-.3l-.04-.15-.14-.27-.1-.27-.3-.6-.1-.34-.1-.24-.02-.18-.03-.07v-.05l.02-.24-.04-.23-.02-.08.02-.05.02-.1.17-.15.13-.28-.06-.12v-.27l-.1-.34-.02-.06.08-.77-.03-.26-.07-.2-.2-.52-.03-.13.17-.1.06-.07.04-.1.02-.14v-.24l-.1-.7-.07-.23-.1-.2-.08-.14-.05-.16-.03-.18v-.13l.17.1.07-.06.13-.24.06-.04.05-.05.08-.12.04-.13.04-.3-.04-1.03-.1-.82-.16-.24-.02-.18-.2-.44-.1-.3-.2-.4-.04-.07-.36-.4-.05-.1v-.1l-.04-.12-.84-1.1-.43-.4v-.02l-.48-.47.03-.13v-.14l-.04-.13-.02-.07-.42-.64-.05-.3-.16-.43-.58-.77-.3-.52-.37-.45-.46-.8-.23-.33-.02-.14-.02-.05-.1-.1-.18-.15-.05-.12-.03-.14-.05-.43-.15-.54-.47-.94-.1-.45-.03-.2-.12-.5-.2-.5-.18-.3-.3-.1-.1-.08-.17-.26-.14-.63-.44-.83-.03-.12-.27-.37-.36-.7-.03-.08-.1-.14-.1-.26-.07-.08-.22-.4-.06-.16-.02-.07-.03-.23-.08-.2-.2-.25-.1-.18-.23-.6-.13-.22-.18-.2-.22-.2-.03-.32-.05-.16-.9-1.2-.64-.45-.2-.25-.14-.2-.34-.18-.05-.2-.02-.08-.08-.22v-.1l.03-.1-.18-.25-.2-.54-.05-.07-.4-.43-.07-.2-.03-.28-.16-.5-.05-.5-.13-.44-.07-.53-.1-.48-.05-.28.02-.4.15-.88h.03l.08-.02.2-.05.05-.05.04-.08.23-.1.3-.22.17-.08.2-.05.23-.03h.03l.2.06.06.02h.04l.03.04.13.1.1.05.04.06.07.1h.16l.38-.03.36.02.08-.03.07-.04.02.02.14.05.38.04.2.03h.1l.2-.1.3-.23h.14l.16-.1.23-.17.2-.08.22-.07.04-.06.05-.1.1-.03.04-.02.13-.1.05-.12.15-.07.1-.03.36-.2.48-.06.14-.03.15.1h.08l.1.04.03.02v.13l.34-.12.1-.04H23.5l.14-.05h.03l.13.1.16.07.17.02.08.24.08.07-.08.23.62.35.43.35 1.03.58.24.32.16.14.22.05.1-.02.1-.06h.1l.14.03.12.03h.12l.12-.05h.03l.16.02.18-.02.13-.02.06-.1h22.1l.04.05.06.14.02.1.1.08.1.04.12.25.03.1.1.06.24.2.03.1.04.07.15.15.1.05.27.3.1.12.14.13.27.06.42.2.74.15.5-.02.26-.1h.07l.13.04h.23l.9.28h.98l.38-.08v.04l.08.06.07.05.1.06.2.06.2.02.1-.1.04-.06h.67l.14.08.22.08.16.02.3-.03h.2l.05.05.22-.1.04-.04.07-.02.07.02.05.03.13.05.2-.15H60.3l.08-.02.25.2.18-.04.07.03.15.18.07.06.2.12.15.1.16.1.23-.07H62l.1.02.18.12h.03l.2.04.1-.05.1.05.05.07.07.07.24-.03.22-.08.25-.04.07-.16.8-.2.08.02.2-.05.1-.05h.3l.2.13.33.12.1.04.1.13.13.04h.1l.1-.02 5.65-1.1 5.15-1H77l3.96-.82H81.07l.25.02.06.04.16-.02.23-.07h.08l.2.08.18.05.04.03.13.02.07.07.08.04.13.06h.14l.1-.02h.02l.08-.06.08-.08.05-.02.04-.04h.16l.38.06.1.07.13.02.17-.02.3.07h.03l.14.23.15-.07.13.12.05.04H85l.04.05.05.07.04.04.07.04.1.04v.08l.05.1.14.1.08.26-.08.1h-.03l-.1-.22-.23.15h-.02l.06-.14h-.46l-.1.08-.04.02-.04.06-.34.1h-.05l-.18.04-.12.1-.08.02-.14.07-.02.04-.14.08-.2.25-.14.06-.1.1-.3.34-.04.03v.04l-.03.02-.16.02-.05-.03-.04-.1-.03-.06-.07-.06-.07-.16-.15-.13-.18-.04h-.26l-.1.03-.1.06-.1.08-.1.18h-.06l-.14-.04-.17.02-.3.14-.3.34-.07.06-.18.03-.07.05-.22.2-.14.05-.07.04h-.1l-.08.05-.27.18-.02.2v.03l-.16.1-.07.07-.13.2h-.06l-.07.05-.5.54h-.13l-.18.22h-.03v-.07l-.1-.25.06-.1-.1-.23-.1-.13.02-.07-.08-.15-.07-.08-.03-.1-.12-.1-.16-.06-.06-.08-.27-.23-.02-.03-.15-.2-.03-.07-.08-.13.03-.05v-.1l-.12-.13-.02-.1-.07-.05-.05-.02-.17-.1h-.2l-1.47.13-7.88 1.53-.15.02-2.77.12.05 20.55h-5.3l.03 37.3-.16-.02h-.1l-.22.1-.23.22-.1.03h-.2l-.2.06-.17.12-.52.03-.07.03-.16.1-.14.2-.04.1H56l-.1.08-.05.1-.15.5-.03.02-.04.02h-.06l-.4.1-.1-.08h-.18l-.15.07-.1.08-.06.08-.12.2-.05.25.05.2.1.17-.1.06-.05.07-.06.1-.25.1-.18.07z" class="st0"/><path d="M123.16 144.7l-.18-.02-.2.03v-1.3l-.04-.5-.27-.58-.02-.12-.07-.57.03-.1.17-.43.03-.2-.03-.28-.07-.24-.02-.1.15-.4-.6-.14-.1-.06-.05-.05-.2-.62v-.13l.24-.63.1-.1.1-.12.04-.14v-.13l-.05-.4-.03-.14-.07-.15v-.27l.03-.12.08-.25v-4.72l.04-.36-.03-.48-.13-.5-.5-1.08v-.18l-.05-.98-.04-.15-.1-.15-.4-.3-.06-.07-.04-.07-.2-.47-.2-.7-.1-.25-.55-.6-.06-.15v-.16l.1-1.25-.04-.25-1.33-4.14.7-.48 5.04-5.6.53.34-.15-.6-.03-.08-.33-.55.02-.07v-.12l-.1-.1-.04-.03.54-.68.15-.3.05-.27-.07-.65-.08-.6.02-.2.03-.13.08-.1.13-.02.2.03.37-.05.2-.2.2-.4.17-.32.56-.68.05-.1.05-.13.05-.2v-.1l-.04-.1.07-.08.03-.1.03-.2.17-.05.06-.12.05-.1v-.05l.5.02-.12-.32-.04-.16.03-.34.1-.27v-.3l.03-.07.04-.24-.1-.13-.1-.1-.12-.04-.08-.05h-.02l.03-.15v-.3l-.3-.17-.25.1-.16.15h-.02l.04-.1-.02-.16.03-.43V103l-.05-.18-.03-.1-.18-.07h-.1v-.3l.15-.17.1-.15.06-.12.04-.14v-.18l.15-.64-.03-.28-.02-.06-.12-.14-.03-.03v-.05l-.03-.05-.08-.12h-.02l-.07-.05-.12-.04h-.14l-.24.04-.02-.12.25-.2-.2-.23-.02-.14.37-.17.1-.02.16.02.25-.02.2-.15.08-.17.05-.2.02-.2-.05-.24-.18-.36-.05-.17v-.03l.1-.03.13-.06.1-.07.1-.03.2-.15.08-.25-.03-.1-.03-.06.04-.04.1-.07.05-.04.07-.15v-.14l-.05-.1-.14-.18-.27-.23.06-.1.06-.14V95.52l-.2-.6v-.11l.02-.1-.03-.1.07-.1v-.03l.03-.12v-.1l-.1-.22.03-.1.02-.05h.03l.26-.18.03-.3-.02-.3.02-.16.07-.14.04-.15-.02-.2v-.05l-.15-.2-.24-.1-.02-.07.07-.1.22-.4.07-.1.03-.07v-.05l.04-.12v-.07l-.05-.14-.03-.04-.1-.07-.1-.07v-.33l-.1-.38-.14-.35-.46-.82.26-.25.1-.14.12-.2.17-.62.1-.5-.35.05-.1.03-.1.03-.18.1-.4-.08-.23-.02-.1.02-.06.02-.03-.12v-.1l-.04-.18-.08-.07-.1-.07-2-.8-.48-.1-1.08.04-.46-.08v-.14l-.1-.22-.14-.1-.22-.12-.06-.06-.3-.33-.17-.15-.18-.1-.97-.07-.2-.15-.17-.02H119l-.14-.08h-.03l-.06-.1-.08-.05-.1-.05-.02-.03-.07-.15-.08-.13-.14-.1-.15-.07-.56-.14-.35-.02-.2.13H117l-.13.03-.04.02-.1.07-.1.1-.02.02-.06-.07-.25-.2-.33-.07h-2.2l-.04-1.6.1-.12-.03-.15-.07-.2-.04-.05-.12-.12v-.04l.1-.17.04-.15-.03-.1-.05-.08-.08-.1.02-.3-.04-.15-.05-.13-.06-.13-.13-.15-.04-.02-.16-.1-.1-.18-.18-.64-.02-.2v-.2l.3-.05.48-.22.5-.24 1.7-.64 1.25-.3h.06l1.8-.42.48-.18.88-.46 1.95-.64.43-.2.17-.04.4-.08 5.08-1.73.2.12.03.03.03.04-.02.2.04.18.17.3.06.07.17.1.05.13.1.15.26.5.13.2.1.07.27.13.07.18.17.14.14.07.08.22.04.1.1.13.03.04.1.06.22.06.17-.12.06-.13.02-.1v-.24l.2.14.27.03.2-.07.34-.2.08-.02.1.02.6.08.14-.08.07-.1.04-.1.1-.04h.3l.6-.2.03.02H134.25l.06-.06.1.1.14.33.15.2.3.3v.2l-.07.32.07.24.1.22.05.13.02.13v.48l.05.14.07.14.06.1-.14.16-.06.16v.1l.04.1-.02.06v.1l.04.47.05.4-.07.12-.15.07-.13.15-.04.1-.02.13-.1.05-.1.16-.08.04-.14.2v.25l.05.36-.03.16-.05.1-.3.4h-.05l-.12.05-.13.1-.18.2-.1.2-.04.24v.25l.1.27.06.06.1.07.18.1.44.45.04.05v.05l-.08.3-.04.3.25.53.14.17.06.06h.27l.13.03.07.06.1.3.1.15.07.1.2.14.07.22.08.05.4.23v.03l.08.15.07.1.28.24v.1l.12.17.15.1.1.04-.02.04v.04l.08.13.1.06.08.03.1.06.08.1.25.2.22.04h.28l.03.08v.14l-.02.15v.02l-.07.06-.1.04-.22.18-.08.34.18.28-.02.17.22.2.35.06.56.02.45-.05.13-.2.04-.12.02-.13v-.12l-.06-.24h.04l.08-.23-.1-.14-.07-.07h-.02l.02-.06v-.2l.15-.13-.05-.27-.13-.27-.02-.43-.03-.05-.17-.2-.1-.08-.1-.13-.22-.1-.1-.15v-.04l.28-.2.15-.14.04-.15v-.3l.13-.12.07-.17-.1-.24.04-.2.07-.13.1-.08.36-.34.1-.05h.03l.06.02.02.08.06.06.08.04.04.02.12.04h.13l.14-.1.02-.04.02-.04.53-.16.05.02h.11l.17-.07.38-.25.12-.13.1-.22v-.12l-.02-.23.08-.32.2-2.65-.17-.7-.13-.5-.02-.15.03-.08.73-1.7h-.34l-.04-.97-.05-.15-.1-.15-.27-.28-1.38-1.74-.33-.65-2-2.37-1.02-.93-.2-.13-.22-.1-.22-.02h-.68l-.02-.04-.1-.18-.08-.1-.1-.12-.16-.35v-.35l.04-.44-.3-2.58-.73-2.62.03-.2.1-.2.4-.6v.03l.07.14.14.16.06.07.15.17h.2l.13.2.24.1.18-.04.2-.1.14-.14.1-.2.03-.25-.1-.22-.13-.1-.18-.07h-.26l-.07.04-.03-.05-.3-.18-.3.06.28-.43.23-.57.07-.26v-.25l-.02-.2.05-.02 1.6.02 2.2.03h.1l.1.04.1.03h.25l.1.08.3.1.02-.1h.1l.18-.1.3-.07.14-.1.05-.18.07-.07.16-.1-.03-.08.17-.02.13-.1.16-.2.12.02.1.05.13.03h.06v.03l.12.27.26.13.2-.05v.04l.2.1.07.04.14.04.15.12v.07l.03.1-.02.1.02.12.1.22.12.1h.32l.06.02.1.03.2-.02.2-.06.17-.02.08-.05h.4v.05l.1.07.07.05.17.08.14.02.42-.06.1-.04h.14l.08-.05.06-.06.2-.07.06-.04.14-.13.14-.22.16-.18h.06l.1.08.14.02.6-.04.13.15.22.2.23.1.5.13.26.04.27-.02.1-.05.02.03.03.03.08.04.3.1h.18l.2-.03.06-.03.03-.02.1-.1.05-.12.07-.02.25-.12h.17l.16-.02.17-.08.26-.2.33-.15.16-.1.08-.07.04-.07.08-.2-.03-.14-.03-.07v-.05l.15-.22v-.1l.02-.04.1-.27.26-.16h.22l.14-.05.04-.05.22-.03h.13l.14.1.03.02.15.03h.08l.08-.04.12-.05.1.02.16.1.26.28.25.14.46.12.1.06.16.1.26-.3.47-.32.17-.2.1-.03.16-.06.08.03h.03l.14.02.16-.1.26-.22.06-.02.17-.1.12-.1.12-.02h.64l.24-.04.14-.06h.05l.15.1.15.06.2.02.2-.05.18-.1 1.08-.85.05-.02h.05l.35-.03.92-.2.17-.07.57-.4.5-.2.1-.06.7-.54h.1l.04-.03.12-.12.1-.13.3-.28.16-.13.28-.1.25-.15.2-.2-.02.06.1.2.12.12.1.04h.07l.02.12.06.17-.53.4.13.68.32-.22.1.06-.07.03-.16.13-.14.16-.13.28.06.22-.06.24.16.2h.06l-.13.14-.07.14v.2l.03.06h-.02l-.34.25-.08.13-.05.12h-.06l-.43.08.26.38.05.1.34.32.04-.1.05.08h.07v.06l-.05.2-.05.14-.1.1-.04.17.05.17.08.1-.07.07-.02.16.05.13.06.06-.03.12.05.2.1.1v.2l.05.17.07.1-.05.2.03.22.1.2.1.14-.08.12-.02.22-.06.24v.1l.02.16.12.23-.02.02-.07-.04-.24.06-.08.17-.05.43.35-.08.03.02.02.07-.05.15-.02.1.02.1.05.1v.02l-.05.12-.15.2-.02.15.06.16.12.12.07.04.08.02h.1v.2l.06.2v.18l.03.16-.04.35h-.08l-.16.25.04.13h-.05l-.24.12-.14.1-.15.14-.08.17v.2l.05.1.36.35.14.04h.15l.06-.02.07-.05-.04.24v.15l.06.2v.07l-.03.34-.14.14-.06.08-.02.16.05.27h.16v.15l-.1.17-.03.3-.02.07h-.02l-.14.17.27.22.03.05.03.04-.05.04-.13.23.03.2.16.38v.06l.1.62.08.2v.08l.06.12.08.08.02.12.06.27v.05l-.14.07-.45.18.3.17-.18.1-.18.1.1.27.05.07-.04.2-.12.06.1.05-.02.16.2-.06.2.1.1.03h.02v.23l.06.36-.07.04-.05.17v.06l-.07.07.06.17.03.05-.02.14.02.6.48-.43.12-.17.14-.43.24-.1.07.02h.02l.03.06-.2.06-.08.08-.13.22v.14l.14.1.05.02.12.03-.05.14.02.1.02.08.07.13.05.05v.03l.04.07-.06.33-.02.05v.07l-.14.06-.05.05-.05.07-.18.2-.06.05-.02-.07-.6-.6.1.72.03.1v.07l.06.2.1.1-.1.24.1.25.03.05-.24.08-.06.08h-.2l-.22.05-.05.12-.03.08-.04.2-.13.28.28.08.2.04.04.02.03.03.18.12.13.15-.1.1-.03.07-.07.16-.12.15-.07.12v.11l-.02.03-.03.1V80.94l-.06.02-.07-.03-.26-.06-.04.34-.04.04-.18.1-.12.15-.35.56-1 1.06-.23.1-.06.1-.04.1-.1.02-.07.04-.1.1-.05.15.1.16.1.12h.05l-.15.13-.27.5-.1.12-.07.04h-.3l-.15.05-.36.2-.23.18-.07.14.04.2.08.06v.19l.04.1-.66-.07.3.36-.08.1v.26l-.04-.1-.05.02-.07.05-.2.1-.18.16-.14.02h-.03l-.08.06-.17.17-.87.44-.82.5-.1.1-.1.15-.28-.14v.37l-.02.03h-.02l-.06.02-.7.2.64.23h-.12l-.15-.02-.28.03-.35.24-.14.03-.7.06-.1-.1-.04-.04-.2-.05.06-.23-.2.2-.4-.12.2.32-.3.32-.08-.04-.1-.03-.14.07-.04.03-.07.08-.02.07v.02l-1.36.53-.1.07v.02-.22l-.13-.16-.28.15.05-.13-.36.3.1.12.05.06-.2.16.06.03-.1.03-.65.14-.35.18-.5.35-.2.05-.13.05-.26.2-.1.1-.22-.05-.2.25-.64.35-.14.14-.08-.06-.2.16-.06.08h-.17l-.14.1-.08.1-.04.08-.08.06h-.02l-.33-.1-.04.4-.1.15-.35.3-.28.47-.03-.1-.14.15-.08-.06-.02-.1L148 94l-.15-.17-.27-.1-.3.08-.5 1 .7-.46.02.04.03.16.03.22.1.2.22.06-.06.1-.05.07-.14.16-.06.1-.24-.02-.18.12-.08.12-.32.65-.04.03-.5.6-.2.17-.26.06-.02.15-.3-.14.06.34-.2.06.02.23v.03l-.04.05-.16.36-.1.03-.05.03-.08.08v.05l-.04.08v.12l-.05.06-.04.12h-.02l-.08-.1-.14-.3-.4-.8-.05 1.08.13.46v.1l-.04.12h-.02l-.17.05V99.22l.02-.07V99l-.2-.1H143.6l-.1.04-.22.24-.2.28-.14-.05h-.1l-.13.07-.03.03-.08.1-.06.15-.08-.05H142.3l-.08.03-.04.03-.08.06-.02.04-.04.1-.02.05v.1l-.58.4-.07.1-.04.06-.14.07-.07.07-.22.37-.03.02-.66.67h.08l-.06.07-.06.13-.25.34-.52.56-.6.48-.52.55-.27.06-.32.32-.2.06-.1.08-.14.17-.13.07-.02-.14-.05-.16-.06-.05-.1-.07-.2-.18-.32-.14-.16-.28-.07-.06-.07-.07v-.07l-.08-.17-.16-.1-.1-.05-.1-.04h-.17l-.15.06-.1.13-.04.06-.04.02-.07.17v.25l.25.03h.08l.14-.07.04-.03.02.1.07.13.32.47.07.05.14.05h.03l.04.05.1.13v.07l-.04.05-.34-.04.08.6h.2v.03l.05.23-.03.02-.08.16v.12l.03.07v.1l.02.1.04.1.02.07-.07-.05-.23.06.1.07-.4.12-.02.1.07.13.08.1.25.14-.03.08-.06.18-.1.13-.03.1-.36-.25.17.7.04.1.06.1.1.1.04.03.1.06-.16.15-.23.64.52-.22.08-.04.15.23.1-.03.1.07.08.04.05.05.04.1v.13l.13.24.13.58.3-.47h.12l.1.1v.15l-.02.43.1-.05.03.1.16.15-.02.08-.02.1v.48l.2-.1-.02.02-.02.08v.14l.03.05h-.1l-.1.13-.04.04-.04.12v.1l.04.14.04.05.1.08v.04l.02.1v.08l.06.1-.12.16.08.2.04.06h.03v.17l-.03.63.3-.3.17.5.34.58.12.17.04.03.13.3-.03.64.05.3.17.4v.05l.03.3.05.3.05.46-.16 1.4v.27l.05.26.12.1.16.1.07.12.1.13.22.24.2-.35.03-.13v-.16l.03-.03.2-.12v.1l-.2.66-.03.78.17 1.27.2.54-.04.07-.23.57-.1.14-.04.13-.02.17v.17l.06.25v.07l-.03.18-.3.9-.1.8v.14h-.03l-.3.06v.27l.02.07.07.08.03.02v.13l-.05.2v.36l-.04.1-.04.18.03.17-.05.12-.08.4.4-.06.12-.07.33-.4h.21l-.18.6-.03.2.02.1.02.1-.04.05-.07.2-.03.05-.8 1.2-.62.65-.02.08v.1l-.02.08-.35.32-1.5.8-.85.4-.83.2-.74.32-.1.03-.62.25-.23.03-2.3.85-.8.42-.6.2-.12.08.03-.07-.7.24-.25.13-.06.07h-.06l-.15.06-.2.08.07.23-.2.1-.15.1-1.37.95-.2.2-.28.42-.14.27-.1.42-.06.07-.04.07v.1l-.14.15-.02.08-.02.1v.1l-.27.3-.06.08-.07.07-.06-.04-.12-.04h-.28l-.12.05-.13.1-.1.24.05.22.16.2.23-.03.13-.07.03.02.08.05.1.05v.1l.02.02.05.1.1.1.02.1.1.3.13.47.3-.27.12.1.07.1.03.1.1.13.16.16.18.08.1-.04.08-.04h.03l-.05 1.32-.07.4-.05.12v.1l.02.3-.04.42-.06.2-2.53.1-.64-.13zM140.1 119l-.04-.22v-.1l.18-.13.1.83-.24-.38zM138.48 89.7l-.12-.02v-.07l-.15-.24.06-.05.1-.02.2-.14.08-.2.03-.26v-.22l-.08-.3-.25-.2h-.25l-.18.02h-.02l-.12-.1-.08-.1-.07-.08-.13-.08-.05-.02v-.03l-.06-.13-.2-.12-.08-.04-.03-.04-.03-.1-.06-.1-.28-.26-.1-.18-.1-.13-.4-.23-.02-.08-.08-.12-.06-.07-.17-.13-.08-.1-.13-.32-.17-.2-.06-.06-.3-.05h-.13l-.03-.03-.14-.35v-.12l.13-.37-.05-.26-.12-.17-.5-.5-.1-.07-.2-.1v-.2l.04-.15.04-.08.12-.1.06-.04.15-.04.13-.08.35-.5.1-.22.03-.28-.04-.38V81l.08-.05.1-.18.12-.07.05-.08.04-.1.02-.14.04-.05.1-.04.02-.03.1-.08.12-.2.03-.2-.06-.45-.05-.38.03-.03.02-.17-.03-.12.1-.15.03-.1v-.06l.02-.22-.07-.12-.06-.08-.03-.07v-.06l-.02-.44-.03-.2-.08-.2-.1-.2-.02-.1.06-.26v-.3l-.1-.2-.33-.34-.1-.13-.15-.3-.12-.2-.1-.08-.2-.1h-.14l-.1.04-.06.05h-.1l-.58.2h-.3l-.27.08-.05.02-.1.16-.4-.05h-.2l-.2.05-.37.2-.05.03h-.04l-.33-.26-.3.1-.14.2v.04l-.07-.08-.16-.13-.14-.08-.1-.2-.08-.07-.28-.14-.07-.1-.25-.5-.1-.17-.1-.15-.03-.05-.03-.03-.16-.1-.1-.2.03-.2v-.07l-.1-.26-.17-.14-.33-.18-.16-.32-.13-.13-.1-.1-.23.12-.08.1-.03.07-.13.03-.1.05-.13.12.02-.04v-.06l-.03-.15-.04-.05-.1-.07-.04-.03h-.06l-.06-.2-.26-.34-.1-.1-.24-.1h-.05l.1-.15v-.18l-.05-.1-.24-.33-.2-.1.1-.07.2-.02.12-.08.08-.14.03-.12v-.1l.17-.08.07-.03.12-.28.16-.64.08-.16.06-.06.2-.05.07-.18v-.19l-.04-.1-.1-.12-.02-.05.08-.64.12-.27.05-.27-.08-.25-.17-.16-.1-.06-.04-.33.07-.1.18-.27.15-.3.04.05.18-.02.1-.06.08.1.16.06h.1l.1-.07.03-.02.04-.06h.04l.08-.05.05-.03.1-.1.1-.2.28.1.12-.03.2-.1.15-.14.1-.16.12-.03.05-.03.08-.1.05-.15v-.02l.1-.1.13-.08.06-.07.08-.15-.03-.33-.17-.07-.1-.02-.2-.05-.1-.02-.37.12h-.04l-.06-.1-.06-.3-.08-.2-.1-.15-.16-.16v-.03l.04-.24.2-.42.07-.37.03-.2-.04-.13-.03-.05.05-.18.03-.25-.05-.94-.04-.1-.1-.17-.06-.05-.12-.02h-.05v-.06l.02-.1v-.1l.15-.27.05-.14v-.1h.02l.06-.05.05-.1v-.11l.33-.5.1-.2.08-.28-.22-.38-.16-.17-.07-.1-.07-.12-.03-.13v-.1l-.03-.17-.06-.27.04-.04.1-.15.12-.02.1-.04.14.04h.16l.1-.04.08-.06.05-.05.08-.02.15-.1.1-.13.1-.25.2-.22.1-.04.22-.15.1-.08.17-.24-.02-.18-.05-.16v-.27l-.25-.03-.02-.03-.08-.2-.06-.08-.17-.15-.12-.32v-.07l.03-.23-.02-.3-.13-.13-.14-.1-.06-.1-.04-.05-.2-.08-.03-.04-.06-.07-.12-.1-.42-.2v-.05l.02-.1.1-.2.13-.2.1-.23-.06-.2-.1-.3-.1-.1-.26-.1-.06-.07-.07-.15-.08-.08-.1-.07V49.54l-.04-.12-.1-.18-.2-.15h-.1l.12-.05.08-.04h.07l.03.02h.1l.18-.05h.02l.25.18.07.07.04.12.08.13.14.12.17.06.27.02.23-.04.2-.1.03-.02.13.02.1.04.18.03h.22l.23-.12.07.04.1.1.16.13.17.07.1.07.1.08V50l.04.06.2.15.2-.1.15-.16.03-.03.03-.03.06-.1.03-.12v-.1l.03-.1.02-.2-.08-.18.02-.03.06-.04.06-.06h.05l.1.1.04.03.06.04.2.24.08.05.04.04.23.13.48.53.1.03.05.2.06.07.15.17.05.03.04.06.52.65.04.08.17.25.04.12-.04.05v.02l-.03.13.05.23.2.44.02.23.06.16-.1.6v.2l.12.2-.05.12v.23l.05.17.04.08.04.05.1.1v.02l.04.08.03.05.1.14-.1.2.13.18-.02.03-.02.13.02.14-.06.26v.28l-.1.18-.15.2-.04.18v.2l.1.24v.1l.07.2.3.25.03.1.05.07.1.03v.06l.07.17-.06.03.24.45.13.17.2-.02.1-.06.14.05.1.06.02.07V59l.08.1.05.05.04.13.1.12.07.13v.08h-1.4l-.33.06-.1.13-.04.14v.1l.04.26-.02.17-.03.18-.2.48-.95 1.42-.13.32-.05.35.75 2.66.3 2.5-.05.4v.48l.2.48.06.08.1.1.05.06.1.17v.05l.07.1.06.05.12.06.13.03.7-.02.13.04.13.05.12.07.97.9 1.94 2.3.3.64 1.43 1.8.27.3.05.05v.02l.04 1.14.1.15-.48 1.16-.05.18v.2l.3 1.24-.02.15-.16 2.4-.1.32v.1l.03.2-.04.08-.4.25-.02-.02H141.16l-.54.17h-.2v.05l-.12-.07-.17-.06-.16-.02-.2.03-.16.12-.38.35-.17.2-.13.25-.06.36.02.1.03.08-.08.12-.04.1-.02.1v.2l-.03.04-.48.3v.23l.08.25.1.18.05.06.14.14.17.05.03.07.17.16.02.28.02.14.1.22-.1.08v.36l-.04.03-.04.15V89l.07.1.07.06.03.02-.02.03v.22l.05.2v.08h-.68zm-11-40.5h-.12l.04-.2v-.26l.25.2.08.02.18.05.13.06.07.04h-.23l-.03-.05-.27-.13-.06.28z" class="st1"/><path d="M100.53 167.44l-.06-.03-.07-.03-.1-.1h-.05l-.2-.06-.02.02-.08.02-.1.05-.3-.1-.1-.08-.22-.28-.3-.24-.02-.08v-.04l-.04-.08-.13-.18-.12-.12v-.05l-.14-.17-.2-.1-.02-.02v-.04l-.02-.1-.02-.05-.1-.1-.14-.05h-.05l-.12.02-.06.02-.1-.3v-.05l.1-.23h.03l.06-.07.02-.2-.1-.14-.03-.03-.1-.06-.15-.03h-.1l-.07-.3-.1-.2-.3-.26-.08-.1-.1-.27-.45-1.03-.05-.1-.17-.26-.1-.1.04-.03.04.02.16-.07.23-.23.08-.02h.13l.1-.03.1-.07h.1l.15-.07.23-.12.04-.05.1-.14h.06l.12-.12.05-.1.02-.1.03-.03.2-.2.03-.03.05-.08.03-.1V160l.06-.03.03-.04.05-.1.02-.1v-.06l.2-.06.1-.05.1-.08.02-.17-.03-.13.05-.03.36-.43.2-.34h-.02l.37-.08-.24-.25.03-.04.04-.07h.1l.1-.2v-.08l.02-.1.05-.03.1-.08.4.03.27-.12.1-.16v-.03l.04.04.05.03.13.03h.17l.22-.06.03-.14.18-.3.24-.26.03-.06.13-.2.04-.03.25-.02.06.02.2.04.16-.02.16-.06.18-.13.18-.3.07-.06h.03l.66-.02.15-.04.28-.17.03.05.02.05.02.08.04.28.15.23h.28l.02.03.1.22.02.04.08.06.1.04.17.03.08.05.05.04.04.06.2.34.4.42h.2v.06l.08.2.1.05.1.06.12.04.15.07.4.46.23.07h.2l.03.3.15.16.1.05.03.05v.03l.05.2.18.27.03.08-.02.1v.06l.06.1-.03.05-.02.04-.02.18v.03l-.13.07-.13.04-.17.08-.2.16-.03.04-.05.18v.2l.02.2v.2l-.3.1-.24.15-.15.22-.08.2-.1.2-.02.2-.03.13v.26l.13.2h.03l.03.13h-.03l-.08.04-.65.4-.62.4-.3.13-.3.06-.5.2-.1-.03-.2-.1h-.13l-.23.05-.24.14h-.03l-.2-.02-.2.02h-.06l-.16.14-.08.15-.1.18-.06.05-.05.05-.06.1-.08-.02-.15.05-.13.1-.2.2-.02.26.15.2.05.03v-.1l.02.1-.05.07-.45.35-.1.2.02.12.02.07.06.12-.1.2-.1.07-.13.18-.03.13v.1zM109.76 21.94l-.22-.06h-1.08l-.14-1.05-.2-.64-.34-.62-.22-.25-.06-.1-.03-.07-.03-.56.1-.55v-.44l-.1-1.35v-.08l.28-.25-.18-.2-.04-.02-.02-.04V15.36l.1-.12.03-.06.03-.12-.05-.38-.05-.08-.08-.1-.13-.1-.1-.03-.1-.02v-.08l-.08-.17-.14-.1-.1-.04-.08-.2-.08-.1-.02-.1-.04-.05-.1-.1h-.03l.2-.04-.2-.35.06-.37h.23l.3.12.14.05.27.03.06.02.03.1.06.1.02.04-.06.15.04.17.05.1.05.18.07.15.3-.03.3-.1h.05l.2.04.04.05.1.06.2-.07.1-.07h.11l.08-.03.1-.04.05-.02.23.07.13.04.23-.02.15-.1.05-.1h.15l.16-.02.18-.1.16-.13.1-.12.07-.13.07-.14.05-.17.02-.6.1-.36-.02-.44h.1l.2.2.1.1.14.08.17.07h.28l.15-.1.26-.3h.04l.1.03h.17l.1-.03.16-.04.1-.04.13-.13-.1-.06.15.04.03.07.06.06.28.23.1.05-.04.07-.22.52-.05.2-.15.14-.08.13-.05.3.15.15.1.03-.05.2v.04l-.07.1-.1.2v.14l.05.14.13.17.15.13v.03l.06.07.02.05.1.2.27-.12.05-.06.07-.1.27.16.02.08.05.08.1.05.06.02h.12l.08-.02.13.07.1.03h.07l-.02.05.05.14.07.1.08.1v.06l.02.1.02.05.06.1-.04.06-.05.05-.05.08v.1l.03.1-.05.03-.02.02-.33-.17-.07.26h-.03l-.14.07-.15.1-.14.1-.28.37.25.14-.24.1-.1.1-.1.02-.08.02-.04.06-.2.07-.04.04-.03.05-.14.1-.06.12-.03.13.03.1v.07h-.03l-.2.3-.06.15-.02.2-.26.17-.23.4-.24.23-.1.15-.12.44-.07.16-.12.22-.14.16-.32.27-.1.12-.16.37-.03.03h-.05l-.1.07-.14.08-.23.2-.2.1-.1-.02h-.18l-.14.08-.05.1v.05l-.05.02-.1.1-.03.13zM62.35 144.77l-.13-.1-.06-.15-.04-.17-.02-.2v-.14l.1-.32.02-.23-.03-.12-.13-.2v-.23l.07-.26.1-.07.1-.14.2-.33.27-.35.15-.23.1-.25.24-.32.02-.13-.03-.17-.2-.35v-.04l.02-.37-.05-.54-.16-.42v-.08h-.03l-.06-.07-.03-.04-.1-.4-.1-.18-.14-.1h-.02l.03-.07v-.2l-.05-.04.03-.06.02-.15-.06-.22-.2-.18.34-.22-.3-.27-.08-.03v-.17H62l-.06-.12-.2-.1-.05-.16-.04-.07-.03-.03.03-.05-.03-.15-.06-.1-.02-.03-.07-.06h-.02v-.22l-.2-.08v-.16l-.08-.18-.16-.26-.17-.35-.07-.1-.72-.6-.45-.28-.1-.02-.16-.02-.1-.12-.3-.25-.04-.1-.1-.1-.02-.04v-15.44h5.17l.12-.37v-.3l-.04-16.37V96.7l2.43-.12 7.96-1.54 1.42-.12h.06v.04l.05.1.05.03.03.12.1.14.03.1.2.24h-.04v.04l.04.17.1.06.15.06h.1l.05.1.08.04.1.04.02.03.03.03-.05.1.23.25-.08.14.08.12.1.27.05.28.15.12.15.05h.1l.25-.08.1-.06.13-.14.08-.02.1-.07.52-.52.1-.07.1-.08.1-.14.16-.1.17-.17.03-.14.12.1.16-.24.17-.08.07-.05.17-.17h.18l.22-.17.26-.3.14-.08.08.02.1.06.2.03.1-.1.08-.08.14-.24h.14l.1.15.08.1v.05l.06.06.27.25.12-.04.28-.04.1-.02.14-.12.35-.44.06-.04.16-.1.2-.23.1-.03.1-.08.1-.02.13-.1.03-.02h.06l.45-.15.13.08h.07l.15.02h.06l.02.02.3-.02.27-.1.17-.15h.14l-.1.26v.2l.03.2.15.4.23.4.18.2.23.14.12.1.2.54.2.32.02.07.05.2.02.1.1.16.36.4.22.16.04.03.22.33.2.17.25.14.03.03.05.14.02.36.23.54.65.58.1.33v.06l-.07.16-.02.17.02.2.05.16.15.25.17.23.1.2.5 1.4.18.3.25.16.3.1h.27l.02.02h-.03l-.05.14-.03.15.13.1.1.07.08.02.16.03.12.18.14.14.17.08.23.06.06.03.17.1.05.07v.04l.04.15.1.12.18.1.27.07.1.12.1.1.14.1.17.04h.18l.16.04.53.28.25.06h.22l.15.02.08.07.08.14.08.06.2.07h.1l.15.02.07.02.04.04.02.04.24.64.08.6-.13 1.2.6-.3h.67l.4.04.28-.04.17.07h.23v.19l-.06.14-.07.28.15.5v.18l-.08.4-.06.08-.03.04V111l.03.3v.08l-.07.26v.15l.05.18.22.3.1.1.4.3.1.16.13.2.2.24.04.05-.02.1.1.17.08.1.1.2-.05.08-.02.16.08.08v.07l.05.1.14.08v.05l.08.12.1.1.08.06.2.07.3.02.37.07h.67l.16.04.18.08.4.2.2.06.2-.03.26-.07.03-.02.1.04.2.02.16.14.3.1.76.36.18.06.37.03.1.03.03.03.18.07-.08.13-.08.15-.04.32.04.3.12.27.2.23.26.15.26.06h.43l.05.1.02.04h-.13l-.14.1-.1.1h-.03l-.6.02-.16.06-.16.22-.03.03-.1.1-.2.26.04.42-.12.23h-.39l-.1.12-.07.12v.02l-.02.02-.02-.02-.08.02-.27.07-.42.25-.14.04-.13-.03-.17.02h-.07l-.1.08-.27-.05-.5.02-.26.06-.25.14-.1.1-.2.2h-.08l-.07.04-.17.1-.18.24-.04.07-.03.2v.03l-.05.04-.05.03-.08.07-.02.03-.03.06-.22.1-.12.05-.02.2v.12l.03.06-.02.06-.04.04-.05.04-.12.05-.08.03-.13.02-.13.12-.06.16v.13l.04.2-.02.04-.14.1-.17.06-.42.1v.04l-.06-.02-.1.2V123.56l.02.05-.02.04-.14-.16-.3.26-.1-.03h-.22l-.1.17-.04.1-.1.12-.03.13-.1.1.02.14.02.07-.06.08-.05.02h-.25l-.16.06H97.65l-.06.03-.07-.2-.34.3-.18.24-.12.1-.17.07-.22.07-.1-.1-.1.26h-.04l-.12.02-.1.1-.05.1v.08l-.08.08-.03.05-.27-.12.03.32-.16.07-.05.03-.07.1-.1.24-.1.15-.05.2v.07l-.1.2-.04.1.04.16v.1l-.38 1.5v.3l-.1.47-.04.03-.1.05-.43.13-.22.13-.08.14-.28.28-.3.2-.17.13-.17.2-.2.48-.23.25h-.1l-.08-.02h-.13l-.3.03-1.44.45-.24.16h-.2l-.26.07h-.07l-.13.12-.03.12v.14l.05.46v.2l-.05.12-.15.33-.02.24-.13.24-.14.44-.45 1-.2.8-.26.66-.1.3-.62.5-.34.15-1.02.08-.16-.03-.2-.07-.25-.04-.27.03-.3.13-.36.27-.34.1h-.13l-.06-.03-.18-.05-.47.03-.1-.03-.2-.16-.75-.28-.16.02-.16.06H81.62l-.18-.14-.32-.4-.35-.22h-.34l-.47.13-.04-.03-.07-.06h-.03l-.1-.05H79.58l-.2.03-.02-.06-.3-.22-.17-.26-.1-.05-.15-.06v-.08l-.02-.05-.07-.05-.1-.06-.24-.1-.08-.1-.56-.43-.16-.1-.18-.08-.05-.07-.07-.1-.1-.12-.12-.02h-.22l-.18.07h-.03l-.22-.1-.33-.07-.32.02-.3.08-.38.18-.03-.04-.3-.04-.2.1-.28.27-.05.08v.05l-.08.03-.12.1-.08.1-.05.1-.07.17-.15.06-.06.1-.04.08-.1.37-.03.05-.04.13v.07l.02.1.02.03-.04.04-.02.14v.22l-.2.24-.1.15-.07.22v.2l.1.1-.13.12-.1.14-.07.13.14.22v.18l-.03.06h-.1l-.04.03-.18.14v.16l.02.08-.18.27-.1.08-.12.13-.12.26-.02.03-.14-.04-.27.03h-.05l-.17.14-.2.3-.25.24-.08.03-.3.07-.1.06-.07.1-.06.1-.16.16-.15.27-.18.48-.17.27-.24.22-.27.16-.26.05h-.45l-.2.03-.23.08-.1.1-.07.15v.16l.04.26v.1l-.02.04-.04.03-.32.2-.07.03h-.03l-.25-.1h-.5l-.18-.1-.18-.05h-.3l-.5.14-.14-.03h-.1l-.5.14h-.12l-.63-.16-.14-.1-.33-.14-.35.05-.22.1-.27.17-.2.1z" class="st0"/><path d="M62.95 94.6l-.23-.13-.26-.07-.06.07-.04-.04-.12-.07-.24-.02h-.24l-.08.03-.13-.1-.2-.1-.1-.1-.14-.12-.18-.1-.07-.03-.1.02-.15-.12-.16-.06-.2.04-.08-.05-.2.07-.07.07-.22-.04-.25.06-.3.04-.32.04-.13-.07-.2-.12h-.98l-.1.08-.06.05h-.03l-.03-.02-.07-.14-.22-.05h-.2l-.33.08h-.85l-.77-.23-.03-.03-.06-.04-.3.02-.13-.03h-.07l-.17.03-.2.08h-.4l-.62-.12-.4-.2-.2-.06-.04-.03-.07-.1-.33-.36-.07-.04-.13-.06v-.11l-.08-.1-.3-.27-.23-.44-.12-.04-.1-.23-.05-.05-.03-.1-.2-.07H27.98l-.08.15-.17-.03h-.11l-.16.1-.18-.07-.07-.03h-.07l-.2.04-.04.03-.02-.02-.03-.02-.22-.3-.08-.08-1.04-.58-.42-.36-.32-.18.02-.07-.1-.18-.06-.1-.08-.2-.12-.13-.18-.1-.2-.03-.04-.03-.12-.1-.15-.05-.07-.04-.2.06h-.08v-.03l-.32.07H23l-.04-.05-.12-.1-.1.03-.06-.05h-.2l-.18.06-.53.1-.36.18h-.1l-.14.08-.2.05-.05.13v.06l-.06.02-.1.05-.03.03-.05.08-.13.07-.26.13-.24.2-.05.02h-.06l-.16.05-.32.25-.08.03-.1-.06-.34-.03-.04-.03-.14-.1-.15.02-.1.04-.07.04h-.54l-.08-.08-.1-.04-.08-.05-.02-.04-.03-.08-.04-.03-.07-.05-.1-.03-.15.04-.1-.02-.05-.03h-.05l-.06-.02-.34.06-.28.07-.25.1-.3.23-.16.07-.18.1v.03l-.04-.02v-.02l.04-.2v-.77l.07-.45.02-.3.2-.56v-.52l.03-.1-.04-.58.05-.53-.23-2.1v-.1l.18-.33-.17-.35-.23-.38v-.17l.05-.16.13.05h.2l.12-.07.27-.25.1-.17.02-.1v-.2l.07-.07.32-.18.1-.18.04-.25.1-.38.08-.2-.06-.18v-.1l.07-.3.06-.66.1-.1.03.02h.1l.12-.08.04-.04.05-.1.03-.1v-.2l-.1-.2-.05-.03v-.05l.14-.3.05-.25.07-.07.02-.03.06-.1.04-.1.05-.3h.05l.08-.1.07-.12.05-.15.1-.18v-.16l-.02-.14v-.07l.04-.1.1-.42.03-.45.07-.1.1-.25.05-.4V74.33l-.07-.24-.04-.1.05-.02.06-.08.05-.1.02-.17v-.05l-.04-.1-.06-.1.04-.14.12-.13.04-.1.04-.16.08-.12.03-.1.02-.2h.04l.15.03h.1l.1-.1.13-.15.04-.25.04-.6v-.54l.06-.08v-.03l.07-.2-.06-.1V70.1l-.07-.2v-.05l.16-.02.08-.08.13-.16h.02l.06-.04.16-.12.06-.13v-.19l.02-.03.08-.07.06-.04.03-.04.07-.03.1-.08.1-.04.07-.06.4-.5.13-.07.07-.08.12-.17.3-.35.13-.24v-.2l-.06-.2-.1-.2v-.03l.03-.07.2-.18.07-.04.4-.36.1-.05.06-.05.14-.22.13-.1h.13l.15.1.22-.2.05.02.18.06.3-.06.2-.15.26-.28.12-.1.1-.12.04-.18v-.22l.03-.06v-.06l.08-.1.03.06.26-.17.08-.08.14-.22.16-.17.06-.1.15-.48.15-.28.07-.2.06-.42.06-.03.07-.12.07-.13.05-.15.1-.57.03-.12.02-.16-.1-1.02.04-.55v-.1l.03-.02.07-.14-.07-.1.02-.1v-.3l.12-.15.03-.16v-.15l.12-.73.02-.74-.03-.23-.1-.23-.48-.74.02-.04.17-.2.03-.13-.02-.13-.05-.14-.06-.08-.27-.22-.52-.68-.36-.3-.03-.07.02-.03v-.3l-.03-.15-.06-.16-.32-.45-.05-.1-.05-.26-.1-.15-.23-.24-.23-.36.02-.07.04-.16-.05-.27-.15-.3-.16-.24-.4-.46.1-.1.06-.18-.02-.2-.03-.1-.07-.17v-.02l-.18-.5.02-.28-.03-.12-.12-.23v-.06l-.02-.08-.2-.15-.32-.58-.15-.34.03-.03.3-.52h.08l.1-.07.12-.1.08-.24.04-.06.13-.12.05-.1.02-.07.16-.08.2-.14.06-.07.24.02.3-.1.1-.4.07-.2.04-.15-.03-.1-.03-.1-.16-.2-.02-.1-.05-.28.06-.07.02-.03.04-.1.03-.1v-.4l-.04-.17-.06-.17-.53-.83-.04-.03-.05-.17-.06-.14-.06-.1-.05-.1-.04-.08-.07-.17-.04-.18-.37-.7-.72-1.6-.25-.6-.15-.57-.2-.2-.1-.1.02-.1-.03-.2-.08-1.04-.1-.25.05-.04.03-.1.02-.1-.04-.1-.13-.2-.22.1-.32-.43-.5-.45-.32-.5-.48-.86-.18-.43-.14-.3-.3-.42-.13-.18-.08-.15h.06l.24-.06h.2l.4-.1.23-.13.06-.02h.12l.36-.18H20l.04.03.15.04.22.04.2-.06.22-.04.26-.1.17-.1.25-.1.14-.2.1-.1.04-.1.06-.02h.08l.1-.04.24.02h.08l.16-.05.24-.14.4.03.18.04.1.07.14.08.2-.16.07-.06h.5l.13.06h.1l.18-.06.35.05 1.63-.12.12.05.1.06.13.05.68-.06h.08l.26.1.15.03 1.06.02.24-.03.3.07h.2l.72-.1 8.47-.15.08.02.03.03.06.04.17.1.13.03.18-.02.17-.05H40.17l.22.08v.1l.04.1.05.1v.3l.03.1-.22.26.48.05.07.07.03.05.15.07-.02-.1.02.04.06.1.05.07-.02.1v.55l-.08.1-.02.03-.02.1v.25l.02.06.07.1-.03.08v.22l.1.03.03.07.06.08-.06.2.03.13.1.24v.21l.04.13.05.13.3.45.02.16.02.07.08.08.1.07.12.03h.13l.02.03.03.1.02.14-.02.04v.14l.12.2h.04l-.16-.03-.03.4.13.45-.02.2v.07l.07.1.14.14.04.04.03.16.04.1.14.1.14.05.1.08.12.06v.18l.1.18.17.13v.02l.02.06.04.1.1.1.07.1.08.2.14.23.26.13v.06l.02.16.02.1-.08.06.1.05.02.2.1-.05v.05l.08.1.06.06.03.06.06.06.1.04v.02l-.1.1.3.17h.04l.05.14v.16l.04.05.06.06.04.04.04.07.18.42.08-.14.05.04v.05l-.05.1.07.12.06.1.05.05.1.06.3.08h.2l.48-.15h.13l.17.1.1-.03.1-.03.33-.18.12.02.08.05.27.24.2.05h.8l-.1-.43.02-.04.03-.03.28-.1.37.02h.26l.15.08h.12l.2-.04.12-.06.44.02h.26L51 40.7h.84v.03l.05.1.15.25h3.5l-.2-.7v-.23l.08-.2.16-.47V39.14l-.04-.2-.04-.1h.07l.17-.02.06-.02.17-.17.06-.22.04-.04.2-.16v-.27l-.14-.45-.03-.14v-.14l.05-.82.04-.12.2-.23.06-.18v-.05h3.96v-.24l.02-.22h1.08l-.34.88-.05.3.02.78 6.78-.02.05.03.1.25v.17l.03.04.05.07-.03.1.02.08.02.06v.02l-.03.13v.22l.05.1v.04l-.07.07-.06.1-.02.14-.05.12-.24.67-.04.1-.03.25.03.22-.05.03v.03l-.03.1v.43l.05.22.14.1.1.06v.06l.04.16.08.14.16.2v.23l.06.3.06.12.1.13-.02.07.02.16.06.13.14.25V43.45l-.2.58.07.02-.04.12-.13.7-.04.08-.04.18-.06.1-.06.48.02.3-.08.57.07.6-.02.17-.05.17-.14.3-.07.23-.03.05-.02.04-.02.16.04.1.04.07.1.1.05.2.04.42.06.25.16.27.33.36.14.4.1-.05.03.07.37.44.18.1.08-.02.24.15.02.03v.04l.03.17.1.32.05.2V52l-.03.16.13.3.14.27.07.22.14.26.04.16.06.07v.08l-.13.27-.08.2v.24l.12.15.07.07v.2l-.02.2.02.26.05.08v.19l-.12.03-.25.1-.14.1-.14.12-.17.2v.15l.04.14.04.07.1.33v.2l.05.1.06.05h.02V57l.12.23.02.07.05.42v.17l-.07.16-.12.33.55-.03.15-.1.28-.28.04-.02.47-.15.26-.2.14-.37.54.23.22.07.25.02.26-.03.2-.1.13-.1h.03l.06.02.17.12.14.07.27.05h.27l1-.16.66-.36.35-.2.17-.04h.17l.16.02.73.2.2.02H78.42l.18.07.3.07.3-.1.07-.1.05-.08.04-.13.1-.04.07-.06h.02l-.04.16v.35l-.03.23.07.2.06.03v.6l.02.2.2.45-.1.1-.12.15-.03.17V59.5l-.12.23-.1.25-.05.14v.2l.05.18.06.13.02.1v.33l.04.16-.1.18-.06.77-.03.76.03.33.15.2.16.18v.06l.02.26.06.27-.05.04-.4.58-.08.2-.2.8-.1.2-.05.33.06.22.15.22.32.32.1.13H68.85v17.25l.03.2.08.13-.2-.02.35.5.05.22.1.1-.03.05.04.14.14.1-.05.17v.13l.05.2.1.15-.03.08.02.12.06.1.13.06v.02l.12.22.5.4.15.06h.08l.13-.04.12.02.12.17.05.07.02.04.06.06.04.02.06.02.4.6.05.13.1.13.05.05.1.06.1.03v.05l.04.1.06.08.06.05.1.02.3.12.23.25.1.12.05.1.04.2.1.2.1.07.2.12.16.15.17.1.34.17.3.08.17.2.03.13.13.22.15.18.17.13.2.1V92l.07.22.1.12.2.05h.14l.1-.03h.2l.15.1.05.08-4.5.9-5.64 1.07-.04-.05-.2-.1-.33-.1-.23-.15-.12-.02h-.5l-.1.05-.1-.04-1.15.33-.07.13-.05.02-.16.05-.05-.03zM17.5 28.48l-.02-.2.06-.18.14-.05.1-.06.04-.05.07-.1.02-.15v-.2l-.02-.08-.1-.23-.1-.2-.12-.33.02-.06v-.05l-.24-.43v-.17l-.02-.06-.22-.27.12-.08.12-.17.02-.02.04-.17v-.16l-.07-.13-.1-.07h-.04l.1-.1.2-.27.06-.24.07.13.22-.2.1-.03h.2l.15-.07.12-.16.22-.44.04-.17v-.1h.06l.4-.14.6-.1.14-.06.06-.06.07-.1.13-.2.04-.04.06-.04.07-.04.13-.14.08-.2.1.06.16.03.15-.04.04.04.06.2.15.18.23.2.3.37-.88.2-.22.12-.15.15-.1.15-.04.16-.02.08-.18.1-.16.14-.08.2v.02h-.24l-.13.1-.07.14-.02.1-.02.08-.14.1-.5.15-.15.1-.03.04-.03.1v.1l.03.1.02.06.04.08.04.03.08.06.26.1v.41l-.1 2.33h-.64l-.5.06-.12.07-.15-.25z" class="st1"/><path d="M118.24 118.94l-.13-.12H117.81l-.06-.03-.03-.1v-.03l-.17-.1-.13.02-.1.02-.18.08-.17-.08-.6-.15-.36-.04-.2-.05-.25.1-.52.03-.15.05-.13.1-.04-.04h-.07l-.22-.02-.3-.03h-.14l-.15.03-.23.1-.07.03-.18.04h-.17l-.1-.03-.17-.14-.1-.06-.15-.05-.18-.02-.28.03-.08-.05-.15-.1-.1-.03-.13-.02-.1-.13-.1-.05-.16-.04-.15-.1-.1-.03-.23-.03-.04-.04-.25-.06-.22-.17-.17-.06h-.46l-.07-.04-.2.03-.2.08h-.12l-.18.02-.1.03-.06.1-.27-.07-.16.04-.27.14-.38-.3v-.07l-.06-.1-.13-.14-.06-.04-.1-.02-.5.02-.14-.03-.13-.1-.1-.12-.06-.15-.02-.18.03-.18.03-.04.08-.1.1-.23-.03-.27-.16-.13-.3-.1-.02-.04-.23-.07-.36-.04-.1-.03-.75-.35-.26-.1-.13-.1-.02-.03-.12-.04-.2-.02-.18-.05-.1.02-.28.08-.1.04-.07-.02-.37-.2-.24-.1-.23-.03-.68-.02-.35-.07-.34-.02-.06-.06-.04-.1-.03-.05-.08-.1V114l.03-.1-.06-.17-.16-.32-.13-.15v-.19l-.06-.1-.2-.24-.13-.2-.16-.2-.4-.32-.06-.06-.16-.22v-.06l.06-.26v-.15l-.03-.37.02-.14v-.1l.08-.13.1-.5v-.28l-.14-.45.04-.15.06-.17.03-.33-.08-.2-.1-.1-.18-.1h-.24l-.2-.1-.38.06-.35-.06h-.63l-.1.02.03-.44-.1-.72-.28-.74-.1-.14-.15-.13-.17-.06-.16-.03h-.18l-.03-.1-.07-.08-.23-.16-.26-.04h-.2l-.15-.03-.53-.28-.27-.08h-.17l-.06-.02-.03-.02-.02-.04-.06-.08-.08-.08-.18-.1-.24-.07h-.02l-.03-.08-.05-.13-.14-.17-.25-.18-.13-.06-.25-.07-.06-.02-.17-.27-.18-.1h-.05l.03-.1-.03-.1-.05-.1-.07-.1-.08-.06-.07-.05-.05-.02-.1-.03h-.3l-.17-.06-.1-.05-.1-.17-.48-1.38-.13-.27-.2-.25-.1-.2-.03-.07V100.6l.1-.16.03-.23-.18-.54-.7-.6-.15-.38-.02-.32-.08-.3-.18-.17-.26-.15-.1-.1-.2-.32-.1-.1-.22-.15-.3-.34-.04-.07-.05-.23-.06-.15-.2-.33-.14-.4-.13-.2-.2-.2-.22-.14-.1-.1-.18-.34-.14-.36-.02-.1v-.04l.1-.2.05.06.17.1H87.02l.08.05.1.03h.4l.07.04h.17l.05-.03.05-.05.3-.07.3-.13.14.1.2.04.06.04.08.06.02.06.04.07.16.06v.15l.06.12.1.13.38.18.34.04.08-.02.2-.1.12.13.15-.22h.06l.24-.07.03-.13.1-.05h.08l.1-.05.08-.07.04.04.08.03.08.02.24.03.05.05.05.04h.13l.2-.02.16.04.35.2.26.08.18.03.04.03.06.1.1.08.13.08.36.1.14.04.1-.03.1-.06.16-.14.15-.02.5-.22.14.05.3-.18h.2l.1-.02.2-.1.2-.2.2-.18.26-.3-.02-.24v-.12l1.4-1.42.5-.5.3-.28.2-.33.1-.5.1-.14.7-1.06.17-.2.22-.12 1.27-.55.58-.46.33-.2 1.88-.74.2-.03h.13l.16-.03.2-.2.06-.1.17-.12.15-.17.05-.25.15-.23v-.2l-.1-.3v-.09l.17-.35-.1-.2v-.13l.06-.2.05-.27-.04-.1V84l.13-.16.16-.16h.3l.23-.04.07-.07.1-.1.1-.22.08-.07.08-.03h.08l.08-.06.23-.22 1.1-.5.5-.03.15-.1.18-.14h.1l.07.03.13.02.2-.02.34-.1.2-.03.27-.12h.25l.4.13.27.04.27-.03.23-.06.18-.02.14.04.05.06.02.02.15.05.1-.03.13-.05.08-.06h.06l.24.12h.18l.03 1.9 2.62-.02.18.05.13.12.05.05.15.13.13.02.15-.02.16-.06.1-.08.03-.05.2.02.1-.13.04-.04h.15l.5.13.06.02.03.03.1.2.1.12.16.1.03.1.04.05.08.04.03.06.12.03.1.02h.16l.04.03.23.12.97.08.05.04.1.1.3.3.1.12.28.14v.18l.08.17.04.07.1.04.1.05.56.1 1.08-.03.38.06.5.2 1.4.57v.08l.08.34.23.18.18.07.1-.07.1-.03h.12l.3.08h.26l-.06.3-.07.1-.06.1-.44.42.03.16.02.07.52.92.12.3.06.3v.15l.03.2.1.23.1.1-.04.1-.2.42-.1.06-.05.07v.23l.07.2.06.1.13.1.2.1.02.07-.02.02-.08.15-.03.28v.33l-.05.03-.12.06-.1.15-.06.17-.02.14v.16l.07.18-.06.06-.04.08-.02.13v.05l.06.1v.23l.2.62v.13l-.07.1-.06.1-.02.07v.1l.02.03.05.12.07.1.3.26-.05.03-.05.08-.2-.05.05.42.04.1-.07.02-.22.1-.05.02-.17.07-.15.16V97.9l.1.24.16.34.02.1-.02.12-.03.1v.03h-.46l-.7.32-.02.16v.1l.04.32-.03.03-.06.13v.16l.05.13v.17l.07.13.04.04.1.07.12.04h.1l.3-.03v.05l.08.1.08.08.02.13-.15.6v.17l-.02.06-.08.14-.22.24-.02.1v.24l-.03.18v.23l.13.13.15.08h.1l-.04.4.02.15-.04.08v.05l-.02.1.03.2.1.1.12.08.1.02.16.02.2-.05.08.16.14.17.16.1.03.02-.02.06v.3l-.1.25-.02.43h-.1l-.2.17-.03.18-.1.02-.1.1-.07.13-.04.27-.1.18v.23l.04.08-.04.1-.25.35-.36.43-.36.7-.04.03-.15.02-.2-.03-.38.03-.25.33-.07.3-.02.26.15 1.23-.03.15-.1.17-.24.3-.5.65.1.2.08.07.05.06v.1l.2.34-5.12 5.68-.53.37z" class="st2"/><path d="M145.94 60.45v-.02l-.05-.13-.14-.1-.1-.02h-.68l-.08.04-.07.06h-.1l-.2.05-.04-.03-.04-.02-.1-.02-.14.02v-.15l-.03-.1v-.08l-.08-.25-.2-.1h-.02l-.08-.06-.14-.07-.1-.03-.2-.1-.18-.1h-.07l.02-.04-.2-.26-.1-.04-.13-.04h-.2l-.1-.05-.35-.06-.1.07-.1.1-.16.2-.2.03-.2.1-.15.1.05.14-.06.08-.06.1-.2.07-.1.04-.17-.03h-.04l-.03-.03-.1-.04h-.1l-.13.04-.05-.1-.16.03h-.23l-1.97-.02v-.1l-.02-.1-.05-.13-.1-.2-.08-.12-.02-.07-.15-.13v-.04l-.02-.05-.14-.13-.17-.1-.27-.1h-.07l.02-.16-.12-.1-.1-.05V57.84l-.06-.1-.02-.04-.07-.07-.03-.03-.1-.04-.05-.1-.2-.18-.03-.05v-.06l-.08-.27v-.05l.1-.13.05-.1.12-.23v-.1l.02-.28.06-.28v-.1l.06-.04.02-.2-.02-.05-.05-.1v-.27l-.07-.18-.1-.14v-.06l-.05-.23-.18-.05v-.03l.03-.2V53.86l-.14-.23v-.04l.1-.5v-.15l-.02-.1-.04-.12-.04-.24-.2-.46v-.07l.04-.1v-.27l-.06-.18-.2-.28-.04-.1-.55-.67-.13-.14-.14-.13v-.14l-.1-.2-.2-.06-.47-.5-.22-.12-.02-.05-.02-.02-.07-.04-.15-.2-.1-.06-.22-.16-.36-.14-.2.17-.07.1-.1.07-.13.2-.06.1.12.3v.02l-.04.13v.1l-.1-.1-.18-.1-.15-.06-.1-.07-.1-.1-.28-.2-.27.1-.17.08-.14-.02-.13-.05-.27-.03-.18.07-.16.1h-.1l-.16-.02-.05-.02-.02-.02v-.04l-.08-.17-.15-.16-.32-.24-.2-.1-.12.03-.07.03-.03.02-.1-.03h-.18l-.07.04-.04.03-.06-.04-.18-.04-.28-.23-.25-.25-.2-.13h-.22l-.13.1h-.02l-.35-.14-.24-.16-.08-.02h-.02v-.04l-.15-.16-.13-.08-.43-.03-.42-.1-.15-.02-.05-.07-.1-.2-.08-.12-.24-.18-.3-.08h-.81l-.07-.03-.24-.26-.13-.06-.1-.04h-.13l-.1.03-.1-.08-.2-.05h-.07l-.08.02-.12.06-.06.04h-.05l-.04-.07v-.16l.2-.42-1.05-.28h-.26l-.22.12-.07.03-.03-.03-.46-.37-.04-.06-.03-.2v-.14l-.06-.27-.2-.17-.24-.07-.1-.12-.18-.12h-.16v-.04l-.08-.12-.15-.1-.17.03-.06.03h-.02l-.3.12-.07-.1-.15-.1h-.26l-.16.08-.13.1h-.19l-.16-.07-.18-.12-.15-.1-.34-.37-.3-.44-.26-.5-.25-.93-.4-.97-1.14-1.8-.1-.42-.05-.32-.2-.7-.4-.88-.33-.52-.78-.9-.44-.37-.27-.15-.5-.25-.68-.52-.14-.15-.08-.16-.24-.67-.4-.52-.13-.23-.04-.15-.07-.6-.17-.6v-.18l.1-.25.35-.46.2-.32.08-.5-.1-.5-.53-1.26-.2-.8-.44-.82-.15-.4-.1-.42v-.4l.1-.38.3-.84.06-.5v-.07h.98l.2.04h.26l.12.06.06-.08.06-.05.1-.12v-.1l.02-.02.06-.03.07-.1H110.6l.36-.17.25-.2.17-.1.06-.05.1-.04.12-.15.17-.38.03-.04.32-.25.2-.22.13-.24.1-.26.12-.4.03-.06.25-.24.2-.34.38.13.08-.4-.03-.13-.03-.1v-.13l.2-.3.07-.15v-.21l.12-.08v-.04h.2l.06-.1.06-.02.1-.05.1-.1.2-.1.2-.18.06-.06.02-.37-.04-.03.04-.02.1-.04h.05l.05-.02.05-.02.02-.02h.02l.26-.02.22-.15.14-.24v-.08l-.02-.08.02-.03.08-.2.02-.1v-.04l-.04-.16-.02-.05-.03-.03v-.13l-.05-.1-.07-.1-.02-.02.08-.1.2-.35-.32-.14h-.12l-.3.08h-.1l-.04-.06-.02-.02-.14-.05-.08.02h-.03v-.04l-.06-.04-.1-.05-.4-.24-.14-.02-.1.03-.08.04-.07-.03h-.04l-.03-.04-.05-.07v-.03l.15-.18v-.2l.34-.36.22-.62-.5.18.03-.06.04-.17.18-.45.05-.07.13-.16h.03l.08.03h.26l.1-.08.07-.1.04-.05.22.12.13.03.08-.02.07-.03h.03l.08-.04.08-.04.1-.03.12-.1.08-.14.05-.18-.03-.42.04-.17.2-.63-.05-.22-.1-.15-.1-.1-.08-.05.02-.07-.03-.24.04-.04-.05-.16.03-.06.06-.18-.04-.26.06-.14-.03-.1-.04-.1.04-.4v-.16l-.05-.2-.08-.22-.2.07-.04-.17-.03-.07-.13-.15.02-.05V6.3l-.05-.3-.2-.1-.2-.05-.3-.12-.05-.06-.07-.05-.12-.06v-.12l-.02-.04-.08-.18-.12-.2-.03-.2-.04-.07-.06-.05-.07-.06h.08l.1-.03h.31l.2.07.2-.15.2-.2.16-.04.16-.08.1.02.1.05h16.56v.04l.15.1.13.06h.14l18.85 10.47.05.07.06.5.1.5-.06.04-.07.1v.05l-.1.05-.17.1-.12.14-.06.1-.03.1v.03l-.02.1v.08l.08.12.04.03-.02.06.05.28.22.06.24-.02h.08l.07.04.05.03.02.02.06.3.07.14.1.13.33.24 7.2 5.17.04.05h.03l-.04.06-.04-.1-.04.14-.5.24.37.14-.12.32-.44-.03.33.54v.07l-.06.03-.08.07-.12.2-.04.38h.18l-.05.06-.13.25-.14.2-.07.16.1.18.02.04-.1.33-.06.1-.06.06-.13.07-.05.05-.03.16.02.15.04.06h.02l-.04.13-.14.28-.14.2-.5.32.3.14v.15l-.03.04-.04.05-.1.23-.1.15-.08.17-.03.16v.3l-.07.1-.04.1-.05.17-.03.06-.05.13v.27l.03.05.1.15.03.14.02.04.06.13.08.06.1.06.03.13v.07l-.03.07h-.03l-.07.1.07.25v.23l.1.22.03.05.16.1.05.15.08.1.08.08.1.04h.03l.02.04.04.06.1.04.1.02h.08l.05.02.07.03h.14l.13.13.16.2.2.13.06.13.06.07.14.1.04.2.12.26.14.1v.36l.58.55v-.37l.06.02h.15l.06.04h.04l.12.03h.06l.1.14v.08l.23.3-.03.12.05.33-.27.15-.26.18-.1.16-.04.1-.02.1-.03.04h-.02l-.06.02-.18.07.02.12-.28.02.1.33.07.1.07.08-.02.03-.1.17-.1.08-.04.04-.08.25-.1.6v.17l.03.14.1.2-.03.05-.02.08v.15l.05.1-.64.75.92-.2.14-.16.26-.03.07.07v.05l-.1.17v.1l.07.27v.14l.05.27-.14.2-.2.53h-.02l-.3.06.15.27-.38-.1.1.36-.13.04.1.24.06.13.03.12.02.1v.15l-.03.27.02.28.23.24.03.07.03.1V44.5l-.02.05-.06.23.33.1.03.04.13.1h.04v.04l.07.13H161l-.05.02-.06.03-.18.2-.17.26.33.13.1.03.16.1.06.03v.17l.05.1v.02l-.04.1.06.08-.02.12.03.13-.15.38.45-.08.1-.03.1-.05.05-.04.17.23.05.12-.07.15-.02.17.1.12-.03.17V48l-.12.02-.06.03-.18.12-.03.06-.02.1v.12l.08.4.28-.13h.1l.1.15.1.1.03.04.04.26.06.12V49.55l.06.1.07.08v.06l-.15.1-.15.3.26.13h.16l.02.06.05.07.1.1-.45-.06.27.45-.24.06v.24l.02.12.04.07v.03l-.1.03.2.4.2-.03.23-.26.03.03h.1l.1.1.23.02.08.06.23.42v.25l.06.2.12.44.3-.36.08-.1.04-.17v-.02l.16.05.06.02v.15l-.04.04-.06.13.05.14.06.1.15.05h.07l.04.03.27.05.02-.04.46.3v-.35l.13.34.18.16h.07l-.2.23.37-.04.03.08.03.06-.04.08-.13.1-.16.12-.3.1-.25.17-.34.34-.12.16-.1.03-.72.55-.07.03-.52.24-.57.38-.1.04-.84.18-.37.02-.15.04-.12.07-1.07.85-.1.04-.08.02h-.07l-.03-.03-.18-.1-.27-.07-.23.1-.13.02h-.64l-.3.06-.18.16-.07.05h-.07l-.1.07-.22.2-.1-.02h-.07l-.2.03-.1.05-.17.04-.12.1-.14.2-.47.3-.06.05-.47-.14-.14-.07-.23-.27-.27-.2-.34-.05-.06.02-.15.05-.1-.06-.08-.12h-.18l-.07.02h-.1l-.42.08-.06.06h-.18l-.1.03-.44.23-.1.13v.06l-.1.27-.05.08v.11l-.1.16-.05.18-.02.06.05.15-.1.07-.33.15-.3.22-.05.04h-.33l-.26.14h-.08l-.15.07-.08.15-.06.06h-.1l-.2-.06-.02-.06-.03-.03-.14-.07h-.1l-.1.03-.13.08h-.1l-.2-.03-.42-.1-.12-.07-.14-.12-.1-.15-.04-.1-.1-.25-.3.2-.5.06-.06-.05-.05-.04h-.18l-.08-.04-.06.03-.15.04-.28.33-.16.24-.24.08-.08.07-.1.02-.1.04-.27.05h-.06z" class="st3"/><path d="M58.6 193.53l-.4-.28-.04-.06-.14-.1-.06-.03-.93.03-.17.04-.03.03-.3-.2-.35-.37-.32-.2-.05-.04-.04-.07-.2-.16-.1-.02.03-.05.04-.16-.03-.22-.1-.26-.1-.2-.15-.2-.14-.1-.1-.03h-.1l-.37.06-.26-.02v-.03l.05-.1.07-.2.27-.73-.7.42-.12.17-.3-.02h-.1l-.2.08-.5.08-.04-.14.03-.02.08-.1.07-.16v-.08l-.02-.12-.07-.18.08-.08.15-.23-.33-.52-.13-.08-.37-.1-.53-.05-.56.02-.12.05-.23.1-.16.12-.2.23-.05.07-.02.23-.07-.12-.07-.02.07-.12.02-.1v-.1l.23-.42-.3-.02.08-.1.08-.3.02-.06.06-.04h.1l.37-.05.12-.42-.03-.18-.15-.24v-.1l-.14-.6-.15-.32v-.08l-.04-.1-.08-.05-.22-.25-.1-.07v-.35l-.06-.16-.15-.26-.2-.2-.43-.3-.05-.22-.15-.3-.06-.14-.03-.06.18-.1-.07-.23-.06-.1-.08-.1v-.08l-.06-.14-.1-.07-.1-.02-.06-.07.03-.22-.02-.14-.1-.2-.05-.05-.18-.1-.24-.03-.22.03V182l-.04-.08-.07-.2-.02-.08.06-.07.03-.1v-.15l-.07-.12-.02-.03.04-.03.12-.03v-.07l.03-.03.02-.2v-.13h.02l.3.28.37.17.33-.1.2-.15.68-.67.17-.3.1-.25.12-.53v-.75l-.05-.16-.04-.07v-.02l.1-.08.04-.05.03-.32-.2-.9-.06-.62-.1-.32-.02-.1.02-.2v-.17l-.1-.2-.08-.14-.05-.08v-.2l-.12-.43-.1-.25-.14-.24-.25-.33v-.03l-.28-.44-.28-.3v-.02l-.04-.14-.12-.13-.2-.16-.16-.28-.14-.12-.03-.1-.06-.32-.1-.12-.25-.2-.35-.6-.04-.1-.02-.07-.07-.1-.08-.24-.07-.14-.38-.54-.27-.55-.05-.25-.07-.24-.35-.5-.1-.17.03-.25-.2-.23-.26-.5-.03-.1-.14-.2-.3-.55-.02-.13-.05-.24-.03-.07v-.14l-.3-.54-.05-.17v-.2l-.14-.5-.34-.82-.03-.15-.06-.14v-.03l-.07-.3h.02l-.07-.3-.02-.28-.15-.42.02-.1-.08-.06-.02-.07-.02-.2-.18-.5-.05-.08-.18-.58-.04-.07-.13-.15-.13-.2-.08-.3-.04-.07-.04-.05v-.1l-.03-.1-.06-.14-.02-.08v-.1l.03-.1-.13-.23-.38-.36-.07-.23-.05-.08-.25-.37-.36-.3-.02-.1-.04-.17-.03-.18.03-.07v-.07l-.1-.2v-.04l-.08-.14-.1-.03-.1-.2-.13-.1.02-.03.02-.1.13-.1.1-.04.23-.07.24-.23.17.08h.1l.17-.05.1-.1.14-.15.07-.13.06-.18v-.15l.15-.13v-.2l-.02-.1-.1-.16.1-.03.1-.06.05-.13v-.14l.18-.04v-.15l.1-.16.06-.12.02-.33h.14l.06-.02.1-.07.16.04.27-.2h.02l.02.02.03.07.12.18.15.08h.04v.06l-.02.1.03.4.22.26.3.06.34-.08.04.1v.03l.1.25.04.07.08.1-.02.2-.03.03-.17.08-.16.17-.03.13.02.16.04.1.15.2.03.1.1.22.17.07-.02.15-.06.23v.45l.4.05.32-.06.2-.02.14-.04v.05l.04.3.23.1.24.06h.1l.16-.06.1-.07h.12l.8.2.17.05.14.1.3.25.23.13.47.17.17.02.27-.1.42-.05h.07l.16.08.23.04.16-.06.17-.05.02.02.08.04h.1l.12-.04.24-.13.93-.12.96.16.04.03.1.17.1.13.06.02.28.05.02.07.08.1.33-.02.27-.1.37-.18.07-.07.04-.06h.13l.16-.1.07-.15v-.07l-.03-.13-.2-.34.02-.1.04-.06.05.04.14.02.12-.02.47-.13.15-.06.14-.12.1-.14.16-.48.07-.04.06-.1.05-.1.1-.12.53-.03.13-.07.15-.1h.24l.25-.08.27-.25.1-.05.1.05h.1l.36-.1.02-.35V133.4l.13.12.13.15.1.06.15.05h.12l.35.23.66.56.16.35.14.26v.08l-.06.12.1.15.1.12.1.06v.07l.06.12.03.03.05.04v.07l.02.1.1.15.02.17.07.14.14.1.1.04.03.26h.02l.08.07-.02.2v.12l.23.2-.02.02-.12.17.06.22.1.08V138.24l.07.1.1.1.12.06v.04l.07.26-.04.08-.02.4.28-.06.1.25.03.44v.55l.18.32-.18.27-.12.27-.1.2-.3.35-.17.33-.05.06-.1.07-.06.06-.05.16-.08.3-.02.2.02.24.05.1.1.17-.13.42v.24l.02.24.06.24.1.22.06.08.07.07.08.05.02.14.18.4.24-.26.1-.07.3-.12.28-.2.1-.05h.15l.18.06.17.1.77.2h.22l.52-.14.15.02h.1l.5-.13h.2l.06.02.2.1.54.03.26.08h.17l.2-.05.35-.23.13-.12.1-.16.06-.18v-.17l-.04-.2.05-.03.13-.02h.47l.38-.1.38-.2.3-.3.24-.36.2-.5.08-.2.17-.16.06-.1.18-.03.1-.03.16-.08.33-.3.2-.32.14-.02.14.05.07.02.23-.1.14-.22.1-.24.04-.02.08-.04.07-.07.3-.43v-.12l.06-.03.1-.05.12-.2.03-.1.02-.17v-.2l-.04-.12.03-.03.1-.1.13-.22-.03-.1-.07-.2-.04-.05v-.05l.28-.33.04-.08.04-.13v-.19l.1-.1v-.2l-.07-.12.1-.38.12-.04.06-.08.07-.1.1-.23.17-.1.1-.1.03-.1.14-.16.03.02.12.1.17-.04.1-.06.4-.2.22-.06h.2l.23.04.2.08.1.03h.17l.18-.05.05.07.1.12.08.05.2.1.12.05.53.43.08.1.04.04.28.1.04.07.07.1.07.04.07.04.12.03.13.23.3.22v.06l.18.13.1.06.22-.07.06.2.22-.02h.1l.6-.16h.14l.18.1.3.4.3.23.38.06.2-.05.1-.04.6.2.22.18.27.08.47-.04.1.03.14.03.25-.02.35-.08.13-.05.37-.27.2-.1h.13l.13.03.2.07.26.05 1.17-.12.45-.2.77-.6.14-.43.28-.67.18-.8.45-1 .13-.4.16-.28.02-.27.13-.27.08-.2v-.3l-.04-.42.1-.02.18.02h.06l.16-.1.17-.1.75-.23.6-.2h.2l.12.02h.13l.22.04.45-.45.05-.1.17-.43.1-.12.1-.08.32-.2.36-.37.05-.07.05-.04.43-.13.16-.07.13-.1.1-.17.12-.57v-.3l.38-1.48.03-.23-.03-.08.15-.27-.02-.1v-.08l.08-.13.02-.02.05.02h.08l.15-.04.2-.13-.02-.16v-.08l.02-.06.07-.04.1.05.15-.23.13-.1h.05l.26-.12-.06-.14.25-.12.13-.1.06-.05v.06l.3-.17.05-.05.06.04.2-.05.03-.02.07-.08.02-.03.16-.02.17-.04.17-.1.17-.2.05-.23-.02-.07.02-.02.03-.1.08-.1H99l.1-.03.1-.04.03-.03.03.03.22.1.16-.08.1-.1.06-.1.05-.14.22-.1-.07-.12.12-.04v-.1l.27-.1.26-.2.15-.27-.04-.26.1-.04.15-.06.1-.06.12-.12.1-.16.04-.2v-.08h.03l.15-.07.06-.1.04-.05.04-.02.1-.05.02-.03.07-.08.03-.05.04-.13v-.04l-.02-.1.14-.22.08.03h.05l.07-.04.08-.06.2-.23.04-.04.15-.08.15-.04h.4l.3.1.12-.05.12-.06.06-.06h.23l.27-.06.42-.23.18-.05.08-.02.14-.03.16-.1.06-.05.02-.1.27.04.2-.16.15-.27.04-.03.03-.04v-.05l.03-.12-.03-.3.07-.1.08-.08.12-.07.02-.06.02-.03.56-.02.17-.05.17-.14.1-.02.2.06.23.02.05-.02h.27l.3-.17.22.05.27.03.12-.1.07-.1.1.04h.05l.2-.1.12.08.12-.05.34-.02.27.2.27.07.07.05.28.04.14.1.07.02.13.03.03.08.05.1.12.02.16.02.12.1.2.1h.14l.27-.02h.08l.05.03.06.07.2.13.25.08h.27l.25-.03.13-.04.22-.1.07-.02.35.06h.17v.02l.02.02.13.05.1-.03.12-.05.14-.1.56-.04.17-.06.08.03.36.04.55.13.17.07.17.04.2-.05.07-.04.08.06.1.07.07.02.02.03.06.02.14.03h.04v.04l1.38 4.3.02.15-.1 1.24.02.3.12.26.55.6.06.16.18.67.23.53.1.15.12.14.36.27.02.04h-.02v.04l.03.9.03.28.5 1.12.12.4.02.4-.04.36.03 4.67-.08.2-.03.2V137.18l.1.2v.07l.04.34v.03l-.13.12-.06.1-.23.62-.05.2.02.25.16.52-.13.06h-.03l-.1-.02-.48-.33-1.6-1.04-.2-.06h-.23l-.24.05-.2.08-.58.5-.47.43-.12.2-.1.35-.27.65-.35.6-.87 1.12-.13.5v1.48l.06.44.1.35.3-.03.17-.05v.03l.1.16.18.2.04.05v.13l-.06.2.02.22.14.3.6.54.2.33.12.12.1.07.7.25.96.33.38.08 2.62.04v-.27l-.02-.12-.03-.1-.08-.18v-.48l-.03-.37.26-1.48h.1l.1.1.12.07.2.05.35-.04h.1l.67.1 2.6-.06-.1.74-.08.34-.03.17-.02.1-.18.2-.02.1-.03.2-.04.06-.04.24-.54 1.52-.38 1.77v.16l-.07.17-.02.1v.13l.04.12-.25 1.44-.03.08-.42.64-.06.15-.03.17-.03.04-.32.1.1.28.07.1.04.03-.04.15-.08.2-.05.22-.05.03-.43.43-.2.1-.07.05-.12.14-.1.17-.05.06-.4.34-.07-.06-.38.06-.3.32.16.25-.53.3h-.28l-.52-.1.05.36-1.06 1.2-.23.2-.05.05-.12.13-.02.1-.06.05-.2.3-.2.1-.14.13-.06.15v.04h-.03l-.08.1-.08.18-.67.9-.7 1.42-.1.35-.13.1-.07.14-.07.44-.3.28-.2.2-.26.5-.3.7-.76 1.33-.12.27-.03.14-.03.03-.2.2-.94 1.72-.13.2-.07.05-.13.1-.03.02-.2.4-.84 1.12-.1.05-.05.04-.18.44-.25.27-.75.73-.32.08-.16.08-.2.15-.06.17-.25.3-.1.03-.13.1-.05.2-.06-.04h-.06l-.14.1-.2.22h-.02l-.17.06-.13.1h-.14l-.16.04-.07.07-.06.08V174.15l-.03.07-.12.08-.1.12-.02.16-.02.03-.12.1-.2.2-.1.15-.07.15-.07.15h-.03l-.04.05-.04.1-.3.15-.08.1-.06.1-.02.12-.03.06-.13.2-.63.67-.55.77-.25.13-.07.1-.68.63-.16.2-.05.02h-.02l-.07.06-.22.24-.1.15-.08.16-.55.43-.1.04-.2.18h-.04l-.1.07-.03.1-.05.05-.23.12-.27.2-.13.07-.3.08-.18.17-.14.2-.06.26-.04.1-.6.5h-.08l-.05.02-.1.12-.05.06h-.02l-.1.13-.02.03-.2.1-.08.1h-.07l-.3.12-.13.08-.52.54-.16.12-.34.1-.1.1-.1.13-.17-.1-.13.28-.02.1-.08.1-.26.2-.04-.02-.2.1-.02.02-.04.07-.52.36-.04.04-.35.17-.14.1-.06.07-.08.15h-.05l-.52.27h-.13l-.22.07-.3.25h-.04l-.28.04-.22.12-.48.2h-.06l-.04.03-.07.05-.07.1-.57.28-.15.04h-.17l-.4-.06H92l-.16.06-.06-.02-.17-.1-.76-.18-.76-.04-.5.07-.48.15-.43.2-.2.16-.18.2-.14.26-.1.4-.03.24.05.14.1.1.04.02.02.05.08.07-.13.08h-.08l-.32-.1-.18-.04-.33.04h-.05l-.08-.06-.2-.04-.15-.1-.24-.12-.48-.12-.54-.02-.5.06-.35.1-.16.1-.15.14-.1.1.1.3-.03.04-.06.06-.3.28-.1.22v.03l-.32-.03-.23-.07-.15-.02-.4.06-.46-.12-.18-.1-.14-.14-.18-.08-.7-.1v-.02l-.1-.06-.34-.15-1-.1-.1-.02-.2-.08-.6-.07-.92-.22h-.3l-.9.2-.16.08-.13.1-.17.14-.1.26-1.14-.1-.02-.06-.05-.14-.18-.1h-.1l-.53-.56.13.82-.1.03-.16-.07h.05l-.4-.4-.1-.08-.2-.1-.27-.02-.44-.05.12.22-.16-.06-.15-.03h-.18l-.14.02-.14.05-.33.26-.17.1-.2.03-.4-.06h-.25l-.5.12-.15.06-.13.1-.2.2-.13.25.04.17-.5.07-.3.13-.2.23-.04.17.02.2-.1.14-.27.18-.2.06-.18.04h-.2l-.5-.1-.12-.1-.23-.06-.16.03-.26.1-.2.04-.08.06-.06.07-.32.16h-.34l-.8-.32-.24-.06-.55-.05-.3.03-.3.13-.2.07-.15.06-.5.25h-.1l-.8.1-.3.12-.23.17-.33.43-.07.07h-.1l-.1.07-.06.1-.17.08-.13.1-.12.1-.1.14-.1.03-.25.1-.43.3-.2.26-.08.1.05.12-.03.02h-.04zm41.55-25.77l.15.08.14.05.67.05.07.04.32.13v-.47l-.02-.13v-.08l.1-.06.06-.1.06-.07.1-.34.02-.06v-.14l-.03-.1.34-.3.14-.15.05-.18v-.22l-.02-.1-.08-.08-.04-.03.1-.04h.13l.1-.04.13-.12.06-.1.1-.08.16-.3h.07l.25.04.18-.06.27-.16.23.1.26.02.56-.2.3-.06.4-.15.64-.43.62-.4.17-.04.14-.06.1-.14v-.15l-.03-.1-.04-.13v-.1l-.02-.07-.12-.15v-.06l.02-.1.02-.18.07-.1.08-.2.08-.13.1-.05.32-.1h.07l.16-.2v-.15l.2-.14-.2-.25-.03-.1v-.08l.1-.1h.07l.13-.04.2-.08.07-.06.12-.16v-.05l.03-.1v-.1l.1-.12.04-.2-.06-.12-.03-.06-.03-.03v-.1l-.02-.08-.05-.13-.18-.25-.03-.14-.05-.12-.1-.16-.1-.07-.03-.4-.3-.13-.3-.03h-.05l-.4-.43-.25-.14-.08-.02v-.12l-.1-.1-.1-.1-.1-.05-.2-.04-.22-.22-.18-.33-.1-.1-.1-.1-.12-.08-.1-.04-.13-.02-.12-.22-.13-.14-.06-.05h-.17l-.03-.14-.03-.13-.07-.14-.1-.13-.2-.17-.16.02-.12.04-.3.2-.03-.02-.7.05-.17.06-.18.14-.18.3-.06.03h-.1l-.07-.02-.04-.02-.06-.03-.36.04-.1-.05-.17.12-.1.15-.17.23-.23.26-.2.28-.1-.1-.26-.02-.12.07-.1.1-.06.1-.03.1h-.03l-.9-.07.1.26h-.03l-.06.08-.04.14v.06l-.07.07-.1.14-.24.06v.25l-.05.07v.21l-.08.15-.28.34-.16.1-.03.04-.04.13V159.17l-.12.05-.2.12-.05.1v.08l-.02.14-.12.04-.05.05-.06.17.05.14-.2.2-.07.14h-.06l-.15.12-.04.1-.04.1-.12.07-.08.03h-.1l-.17.1h-.13l-.2.07-.12.08-.06.06-.05-.02h-.1l-.1.06-.05.03h-.08l-.12.1-.04.07-.04.13v.1l-.05.06-.1.2.2.1.1.07.1.04.02.04.1.2.6 1.43.14.18.28.25.03.07.05.24.04.1.13.2.13.05h.04l-.1.22.02.23.12.34-.03.26.22.03.17.03h.18l.07.13.12.12.16.08.06.12.14.14.1.15.02.15.02.04.07.08.3.24.26.3.2.14.25.08.3.04h.1l.1-.06.05.08z" class="st2"/><path d="M169.07 3.43L169.03 0h-36.6l-.26 2.25.04 1.56.5.02.02.18h.12l19.04 10.58.03.05.13.2.25 1.54-.2.02.02.2-.3.02-.03.02-.1.07v.03l.1.17v.06l.13.02.15.04.16.1.13.13.05.1.1.3.04.1 7.36 5.3.1-.16.2-.2h.06l.06-.37.4.48v-.08l.06-.17.12-.02.05-.1.1-.1.17-.13.06-.1.03-.03V22l.06-.1.02-.03.07-.07.1-.07h.02l.16-.6.18-.45.24-.37h-.08l-.3.3-.14-.38-.03-.13v-.22l.1-.16h.07l-.07-.13.3-.25.2.04h.03l-.03-.12.15-.18.5-.28v.26l.35-.93v-.06h-.1l-.1-.04-.12-.1-.03-.1h-.03l-.1-.14-.02-.16.07-.17.17-.24.24.2.04.02.08.02.04.05.07-.3.13-.2.13-.3.03-.06-.03-.07.02-.07.03-.3.05-.1.1-.12.5-.12-.03.14.16-.06.1-.07v-.03l-.06-.2v-.2l.2-.3.05-.33.03-.1.1-.1-.1-.1.02-.12-.1-.07.03-.35.1-.3v-.06l-.02-.03-.04-.08v-.18l.03-.1.15-.2.1-.2.08-.14.08-.1.3-.23.2-.12h.08l.28-.2.58-.17h.25l.2.05.12.05.1.02.06-.02.32-.38.25-.1.14-.1.07-.05-.1-.13-.03-.06-.03-.13-.05-.2-.05-.43.34.2.15-.17.02-.02-.2-.34.42.15-.02-.07v-.26l-.07-.05-.03-.1V9.6l-.26.07.1-.46-.06-.13.16-.17.16-.1.15.05.05.03.04.05.06.04.06.03v-.25l.28-.2.34.3-.05.1v.13l-.02.05.1-.04.07-.07.1-.08.16-.03h.1l.13.04v-.1l.54-.54.02.44.1-.04.03.05.1-.13.35-.3.04-.03.02-.05.22-.33.34-.34.02-.3v-.02l-.03-.1z" class="st1"/><path d="M131.97 0h-22.1l-.07.4-.13.68v.05l.08.15.03.1.02.36-.02.12-.06.13-.05.02V2.13l-.06.1v.03l-.07.37.05.24v.46l-.02.1-.07.14-.1.1-.1.04v.16l-.05.2.08.23.03.15v.12l-.07.28v.08l.08.15.04.2v.08l-.04.1.04.06.03.1V5.82h.02l.1-.05.1-.1.16-.06.17-.03.13.04.02-.03.07-.05.04-.02.1-.04H110.5l.1.03.1.04.2.35.03.14v.17l.04.05h.02l.07-.02.37-.2.04-.08.07-.07.05-.03.2-.12.17-.03.03-.2.04-.1.02-.05.07-.08.06-.04.1-.02.05-.02.2-.2.07-.06.04-.08.03-.1.02-.08.04-.04.1-.07.04-.2.05-.1.02-.04.13-.1.13-.05.16.03.06.02.22-.04h.08l.1.03.06-.03.16.02.07.05.08-.02.3-.02.18.02.2-.2.1-.05.2-.05.26-.15.32.1H131.75l-.04-1.57z" class="st0"/><path d="M105.64 43.1l9.43-1.43-.05-.2-.37-.9-1.15-1.8-.15-.53-.04-.32-.17-.63-.38-.83-.3-.46-.73-.85-.37-.3-.77-.4-.73-.57-.2-.22-.14-.23-.22-.65-.37-.48-.17-.3-.07-.25-.08-.6-.17-.63v-.3l.15-.4.38-.5.14-.22.05-.33-.1-.4-.5-1.23-.2-.8-.42-.77-.2-.5-.1-.47v-.5l.1-.47.3-.8.06-.4-.02-.18-.02-.08-.16-1.25-.15-.55-.3-.5-.2-.25-.12-.17-.06-.2-.04-.67.08-.57.02-.38-.1-1.37v-.15l.06-.2.03-.02-.04-.13v-.4l.02-.17.04-.08.06-.08v-.18l-.04-.02-.16-.03-.18-.08-.1-.23-.03-.1h-.05l-.12-.07-.1-.12-.04-.07v-.1l-.1-.16-.04-.07h-.08l-.2-.07-.1-.24.02-.25.04-.1.03-.03h-.13l-.1-.05-.2-.14-.07-.06-.1-.1.02-.1.04-.3-.02-.06-.08-.05-.1-.12-.02-.08v-.13l.04-.13.02-.03-.02-.05-.03-.12v-.2l.06-.2.06-.05.15-.1.17-.06.05-.02.05-.02.04-.04.06-.07.04-.1.07-.14.1-.08.13-.04h.12l.2-.04.08-.06.1-.15.08-.2.03-.18V9.7l-.14-.86V8.6l.03-.24.1-.27.33-.52.13-.23.1-.14.25-.2.18-.33.1-.13.18-.07h.35l.1-.16.2-.2.28-.18.08-.03.03-.2-.07-.1-.03-.1v-.1l.05-.14-.06-.1-.08-.12V4.8l.07-.28V4.4l-.1-.2-.02-.14.06-.23-.02-.1V3.5l.14-.2.15-.05.02-.25v-.08l-.06-.26v-.14l.08-.4.02-.1v-.19l.03-.07.1-.14h.03l-.02-.2-.07-.2-.02-.2.2-1.06H46.83v.02l.14.57.05.92-.04.13-.15.2-.32.3-.02.1-.23.25-.06.05-1.04 1.22-.12.1-.14.17-.06.05-.1.04-.17.17-.08.06-.34.1-.24.02-.08.02-.38.15-.27.08-.16.02-.16.2-.2.15-.18.22-.28.2-.08.04-.07.18-.1.2-.1.23-.08.1-.23.42-.15.17-.14.27-.16.24-.05.13v.24l-.05.2-.1.18-.4.52-.03.1-.02.1-.1.04-.1.07-.1.05-.1.12-.37.35-.2.15-.3.3-.14.08-.1.1-.1.13-.08.1v.28l-.04.28.04.1.02.08v.25l.18 1.33-.13.82-.13.42.06.54-.02.23.03.33-.03.25.07.16v.2l-.04.15v.04l.06.04.08.1.05.1-.03.24-.04.13-.08.18-.24.4-.1.32-.16.27-.3.35-.2.4-.05.17-.1.08-.08.24-.2.33-.12.35-.23.22-.27.13-.26.08-.44.06-.8.25-.05.04-.2.57-.03.07-.12.13-.08.08-.22.1-.18.07-.56.3-.14.07-.12.05-.07.04-.05.13-.52.73-.17.14-.23.1-.05.1-.4.38-.42.7-.06.12-.1.13-.14.1-.22.1-.4.23-.2.06-.26.03-.13-.05-.2-.1-.08-.05-.06-.06h-.03l-.12-.02-.06-.07-.16.16-.1.05-.46.1-.03-.25-.03-.24.07-.32-.04-.1-.02-.1v-.03l.03-.15.04-.02v-.1l-.1-.08-.12-.14-.05-.23-.04-.12.02-.22.07-.1.17-.15.16-.07.07-.1.07-.07-.1-.08-.13-.15-.1-.13-.03-.1-.03-.08h-.02l-.16.04-.1.05-.24.2-.23.12-.24.07-.4.04-.13.06-.12.15-.07.07-.04.02-.1.1-.07.06-.1.05h-.17l-.08-.03h-.25l-.08-.03-.14-.1-.02-.05-.04-.13-.07-.04-.2.07.04.45-.03.14-.07.16v.06l.04.18v.15l-.14.2h-.02v.02l-.12.16-.2.02-.1-.03-.1.23-.3.1-.17-.1-.06.1-.1.03-.2.16-.16.18-.07.06-.25.2-.13-.26-.14-.3-.04-.15-.37-.14-.12-.08-.22-.2-.13-.1-.13-.1-.06-.18-.04-.07-.07.23-.33.1-.97.23-.1.04-.06.06-.03.06-.03.08v.18l-.13.16-.24.14-.02.02-.03.1-.04.1-.07.1-.27.1h-.07l-.12.28-.3.18-.2.07.1.06.1.06.05.32-.13 3.2-1.06-.02-.36.04-.05.02.05.1.08.1.37.38.1.12.1.06.02.05h.21l.1.02.05.03.13.1v.17l.18-.04.32-.16h.36l.06-.02-.02-.18.18-.2.07-.12.12-.14.17-.1.2-.12.22-.06.22-.03h.2l.1.04.18.07.1.02.2.1.1.02h.18l.07.02.18-.06.12-.02.14.02.03.02.44.04.28.07.02.02.03-.03.06-.05.07-.06h.73l.1.04.1-.03h.1l.4.04.87-.07.8-.05.26.08.13.07.6-.04.18.03.27.1h.1l.97.03.3-.06.34.1h.1l.7-.12 8.57-.14.2.06.12.07.04.06.1.04.2-.05.15-.02h.13l.13.04.25.1.4.2-.1.27v.03l.03.1.02.2h.1l.1.3.1.1.07.04.08.06.02.08.1.1.07.12.02.14-.02.1-.02.07-.02.03v.4l.03.08v.14l-.06.12-.07.05.1.05.03.2.12.04-.1.2.06.1.05.1v.15l-.03.05-.04.04-.02.04.1.2.02.14v.16l.02.05.02.05.3.4.03.12.02.1.2.03.2.15.04.05.08.2.04.32.04.04.08.1.1.2-.06.2-.02.02-.02.4-.1-.03.05.16-.03.17.1.1.1.13.04.13.02.05.06.03.15.1.14.07.1.1.08.12.02.06v.05l.1.05.1.03.1.05.08.08.04.07.03.17-.1.1.1.18.06.2.04.07.23.12.23.16-.04.17h.03l.05.2.04.03.05.05V39.45l.03.04.1.03.03.03.13.14v.02h.14v.16l.1.1h.02l.1.1.03.1.05-.06.08.26.08.03-.05.07v.14l.12.07.1.08.07.14.02.13-.03.07.1.03h.07l.5-.17.26.03.1.03.34-.17.13-.02.28.04.2.1.24.2h.24l.02-.13.08-.2.16-.1.1-.02.28-.13h.52l.34.03.15.07.2-.1h.32v-.1l.1-.15.14-.1H52l.1.03.16.1.04.22v.02h2.65l-.04-.15v-.2l.02-.2.22-.7.02-.16-.03-.1-.07-.16-.05-.23.04-.37.23.02.3.04.02-.02.04-.18.15-.18.05-.05-.13-.35-.05-.2v-.2l.05-.92.08-.23.18-.27-.2-.47h4.2l.02-.05.02-.1.07-.13.05-.08.1-.07.13-.02h1.84l-.4 1-.17.46-.03.2v.3l6.45-.02.25.02v.12l.02.02.05.07.12.26.05.1v.17l.03.04.05.12v.17l.06.1-.02.17-.05.14.03.12v.28l-.05.12-.05.07v.02l-.03.1-.3.83-.03.14.02.13v.18l-.03.1-.08.1v.27l.14.08.1.1.05.1v.12l.02.06.04.06.13.14.08.2v.1l.02.2.05.2v.02l.18.2.16.3-.14.08.13.24.04.3-.03.27-.04.16.2.02-.27.45-.06.12-.12.72-.05.1v.02l-.04.14-.04.06-.05.4v.3l-.06.56.05.56v.27l-.08.27-.14.27-.06.25v.05l.04.06.06.08.1.3.04.44.03.15.1.16.37.4.23-.13.02.37v.1l.02.08.2.22v-.02l.24.12.1.07.25.18.1.16.06.15.05.16.1.34.07.25.03.05-.04.17.07.16.15.27.07.2.14.28v.08l.08.1.07.23-.02.08-.04.2-.04.1-.1.17-.03.07.1.13.08.2.02.25v.32l.14.23-.08.1v.27l-.07.13-.1.1-.15.02-.1.02-.18.06-.08.06-.1.08-.02.03.03.04.12.43v.12l.05.04.05.06v.06l.1.2.05.15.05.45v-.02l.15-.08.45-.14.1-.1.2-.5.4-.04.63.25.16.04.14.03h.1l.1-.06.15-.1.17-.08h.24l.18.1.2.14.17.03h.2l.54-.1.36-.04.58-.32.4-.22.27-.07h.5l.73.22h.39l.24.03.2.06.15.03.04-.02v-.06l.1-.16.07-.05.1-.06.05-.17.07-.2.23-.1h.27l.28.06.28.1.22.2v.2l-.03.1.05.14v.06h.13l.2.06H81.23l.16.03.14.07.18.12.2.18.05.1.03.16-.03.1-.04.07.03.02.06.1.05.18v.28l-.04.17-.06.1-.18.3h.02l.16.1.14.15.06.02.08-.02.22-.08h.1l.06-.12.14-.12.07-.03.1-.02.14-.16.08-.1.33-.1h.36l.15-.03.43-.2.3-.1.17.03.73-.06.26-.05.56-.28.16-.03.17.03.15.13.02.25v.4l-.1.1.03.04-.1.2-.07.12v.03l.14.22.04.1.03.1-.02.13-.04.06h-.04v.06l.14.4.03.04.1.02.12.1.05.05.35.17.14.13.02.06.02.08.05-.07.13-.1h.4l.26.2.13.1.12.1h.05l.26.03.2-.07.1-.02h.05l.15.1.23.2.17.08.12.1.06.12h.98l.16.07.08.06.05.03h.2l.1.03.1-.06.07-.03.26-.04h.27l.2.08.1.1.1.1.13.05.46.03.27.07.14.07.04.05.1-.12.14-.12h.24l.18.03.15-.03.15-.08.14-.1.07-.18.02-.43.08-.3.1-.15.06-.04.03-.05-.07-.25v-.2l.18-.2.16-.03h.04l.06.03.25-.08h.15l.24-.08.13-.03.08.12.14.2.06.28.02.3-.02.1.1.37.96.6.3.5.02.22.22.68.05.07.33.27.2.2.03.02h.4l.13-.02h.02l.05-.08.1-.08.1-.06.27.03.15.07.36.24.1.15.03.14.12-.02.4.04.1.03.13.07.03.1.27-.08.07.03.17.1.04.04.03.04h.03l.16-.02.16.02.14.05.13.07.47.43.1.15.1.3.23.25.08.16v.27l-.04.05-.13.16.06.05.14.15.1.16.04-.03.14-.1.4.1.28.3.33.42.13.12.05.1.04.13.04.02.04.05.07.1-.02.15.05.04.04.14.06.02.1.03.13.17.16.8.06.18.15.15.16-.05h.1l.17-.02h.18l.18.08.1.1.02.02.03-.03.1-.06.08-.03.36-.22.7-.27.08-.03.37-.33.18-.08.24.02.17.1.06.06.05.03h.09l.15.05.07.1.04.08.02.05V69.1l-.04.1-.1.15-.08.05v.07l-.04.14-.04.03.1.04.15.05h.26v-6.5l-.18.13-.28.13-.1.03-.13.03-.15-.1-.05-.04-.04.03-.15.08-.2.06-.05.18-.02.14.06.08.14.04.14.06.06.26-.03.2-.1.16-.17.1-.16.02h-.08l-.06-.03-.1-.06.02.03-.14-.02-.17-.05-.16-.1h-.22l-.1-.02-.15-.08-.08-.06-.06-.08h-.3l-.1.02-.08.04-.3.2-.08-.16h-.18l-.05-.03-.08-.02-.06-.03-.1-.1v-.12l-.4-.75-.08-.12-.3-.17-.1-.1-.07-.08v-.08l-.03-.07-.07-.1-.2-.1-.14-.1-.06-.17h-.04l-.2-.05-.27-.15-.15-.1-.05-.1-.18.1-.1-.27-.04-.05-.13.07-.2-.3-.06-.3v.1l-.12-.1-.07-.12-.05-.38-.02-.02-.07-.1-.08-.16.05-.06-.04-.17-.1-.1-.07-.1-.1-.23-.04-.12-.02-.35.03-.15.3-.44.08-.08.03-.03v-.13l.02-.12.12-.2.07-.15v-.2l.1-.15-.07-.3v-.17l.1-.12.07-.1v-.28l.07-.1.02-.03.04-.04.02-.08.05-.1.02-.27.03-.17.07-.15.1-.15.07-.06.05-.16.12-.2.07-.04.05-.03h.1l.06-.06h-.02l-.07-.1-.02-.04-.02-.15.02-.12-.08-.08-.07-.1-.04-.13v-.1l-.05-.1.06-.1.07-.12-.02-.07-.05-.1-.06-.16-.03-.2.02-.1.02-.12-.05-.04-.02-.04-.02-.06-.27-.22.08-.17.08-.13.1-.1.07-.12.03-.16v-.4l-.02-.45.05-.18.14-.3.07-.28.03-.08-.03-.08v.03l-.1-.06-.12-.2-.04-.16v-.22l-.04-.1-.02-.1-.07-.1-.06-.1v-.1l-.03-.02-.04-.1v-.16l-.12-.1-.07-.07-.07-.12-.02-.06v-.26l-.04-.05-.07-.06-.3-.06-.32-.12-.15-.4.18-.34.3-.2.45-.2.46-.34.86-.83.64-.85.18-.37.02-.42-.2-.46-.07-.3.18-.06zM46.38.1V0H27.53l.13.07.2.2.1.2.06.25.02.14h.1l.14.05.06-.02.12-.03h.1l.2.05.24.1.24.18.06.1.25.18.1.12.14.3.08.2-.07.28-.18.42-.03.07-.02.07.05.16.03.23-.13.24-.12.13v.1l-.06.3-.03.05.13.34.06.1.03.2v.07l-.02.03.08.06.1.2.02.07v.2l-.03.13-.08.17-.07.07.22.15.05.2v.15l-.1.13-.03.03-.05.04-.02.13v.02l.04.08.04.13v.26l-.25.04-.05.08-.08.08.02.05h.05l.1.05.3.26-.28.16-.08.04-.04.04-.02.45-.03.1.04.22-.02.15-.08.13-.23.13-.54.2v.03l.07.1v.17l-.05.08-.02.27-.04.13-.05.08-.06.07v.14l-.17.2-.08.02.3.27.07.24.1.55-.4-.25-.15.04-.1.1.02.05-.04.13-.05.06-.08.08-.04.1-.04.08-.04.03-.1.08-.1.02-.13-.02-.1-.04-.2.06h-.1l-.12-.02-.08-.08-.03.02-.18.03-.2-.02-.2-.1-.08-.06-.1-.08.03-.14v-.28l.13-.15.08-.04v-.02l-.02-.03-.1-.1v-.13l-.1-.13-.1-.14-.13-.3-.04-.17-.02.05-.06.18-.05.07-.4.4v.03l-.03.1-.05.08-.14.1-.16.05-.1.1-.05.07-.2.15-.04.1-.08.08-.05.04-.12.02-.1-.02-.06-.05h-.1v-.02l-.2.03-.14-.02-.9-.33-.04.04-.1.03h-.08l-.2-.04-.3-.14h-.04l-.1.08-.13.07h-.1l-.16-.02-.05-.14-.03-.17.06-.1.05-.06.03-.03.03-.12v-.02l-.05-.08v-.05l-.03-.08-.06-.1-.06.02h-.24l-.04-.17-.02-.1-.04-.04-.05-.06v-.06l-.02-.1v-.02l-.03-.08-.02-.08v-.1l-.06-.05-.05-.07-.06-.16-.1-.35L20.5 9l-.2-.06-.06-.03-.33-.24-.2-.08h-.12l-.25.22-.03.1v.03l-.1.1-.17.1-.1-.03.03.28.07.1.32.16-.08.3-.14.2.04.25-.05.22-.06.14-.03.1.16.3-2.47.52-.22-.03-.26-.2-.14-.17-.03-.02-.06.04-.25.07-.16.03h-.04l-.22.2-.16.08h-.2l-.17-.1-.18-.15-.1-.13-.14-.05.04.12.02.18-.06.27.02.07.15.23.08.16.03.18v.16l-.03.13-.07.18-.27.44.1-.04.24.08.15.16.16.24.43.46.12.17v.32l-.3.16h-.16V15l-.03.3.28.1.15.1.17.14.15.07.3.1.3.13.1.38-.05.1-.13.17-.2.14-.03.07-.3.65v.04l.16.06.18.1.1.27-.02.07-.08.2-.14.13-.17.12-.16.06-.2-.02-.3-.1-.35.06-.23-.08-.16-.17-.35-.6-.15-.13h-.14l-.1.15-.15.2-.3.1h-.13l-.14.1-.18.14-.24.14-.06.14-.35.93.12.1.53.35.47.37.06.07.02.05.03.12v.04l-.02.04.1.14.05.1.23.2.28.2.48.4.56.5.65.65.13.26-.05.26-.1.1.08.07.2.22V23.95l.16.18.05.14.12.1.22.27.08.15.43-.36.1-.17.17-.54.05-.08.04-.04.14-.06h.1l.17.1.07.02.02.02.08-.02.12.02.2-.38.02-.05v-.23l.04-.15.13-.18h.13l.12.03.4-.12.55-.07.15-.26.1-.1.1-.1h.08l.05-.16.1-.18.18-.1h.23l.16.07.14-.05h.12l.18.1.14.2.05.18.07.1.24.2.27.3.1-.15.35-.03.2.22.18.3.02.1.17.1.26.24.3.13.13.05.14.16.04.1v.05l.12-.1-.13-.1.46-.27.1-.03.1-.02.18.08.03.02.06-.1.2-.14h.1l.08-.1.02-.02-.02-.06.04-.22.1-.2-.07-.5.02-.12.04-.14.17-.1.4-.13.22.03.03.03.18.14.07.08.06.1H26.65l.07-.07.05-.04.2-.25.32-.12.4-.04.18-.07.14-.05.22-.2.2-.1.17-.04.28-.14.15-.02.12.02.07.06.07.1.02.05v.22l-.03.1.1.15.18.12.05.03.1.1-.04.28-.13.18-.07.07-.1.1-.08.1-.18.07-.04.03.02.06.03.16.03.03.1.1.1.12.02.27v.06l-.02.03v.08l.05.15-.05.2.08-.04.2-.05h.1l.14.05.03.03h.06l.1.03.06.06.03.04.03.02.17.1h.08l.1-.04.4-.24.18-.07.04-.02.03-.03.05-.1.47-.78.4-.4.1-.15.27-.13.1-.07.27-.4.16-.22.03-.08.08-.18.2-.12.12-.04.13-.07.6-.3.2-.07.12-.07.1-.1.2-.57.1-.15.13-.1.12-.04.8-.25.43-.07.2-.06.17-.1.1-.07.07-.25.07-.12.16-.27.1-.3.08-.07.03-.1.26-.48.3-.36.1-.2.13-.32.24-.42.05-.13v-.06l.02-.03-.13-.1-.02-.07-.04-.2.03-.2v-.06l-.04-.1-.03-.12.02-.28-.02-.34.02-.2-.06-.5v-.13l.02-.1.12-.36.1-.7-.2-1.57-.05-.24v-.1l.07-.26v-.2l.06-.16.08-.13.16-.2.16-.13.1-.08.33-.3.2-.15.32-.3.08-.1.08-.06.1-.05.2-.13-.1.04.04-.1.4-.53.06-.07.03-.1v-.18l.02-.12.03-.12.07-.13.16-.24.14-.28.15-.18.22-.42.05-.08.1-.22.1-.18.08-.2.04-.05.07-.08.12-.07.2-.17.2-.2.2-.17.1-.1.08-.12.2-.1h.15l.2-.07.4-.14.13-.04.23-.03.22-.05.1-.1.02-.07.07-.03.1-.04.13-.15.12-.1.7-.85.35-.4.07-.04.1-.12.04-.08.02-.04.07-.1.3-.27.08-.1-.04-.8zM29.3 1.84l-.03-.03-.27-.2-.05-.1-.14-.08-.17-.08h-.15l-.17.05-.25-.07-.42.22-.02-.53-.02-.2-.05-.17-.05-.1-.07-.1-.12-.08-.16-.02-.15.04h-.12l-.1-.1-.06-.02-.03.02-.18.1h-.07l-.16-.03-.1-.07-.25-.3H2.48v.6l-.1.27-.16.24-.44.47-.15.26-.25.22.08.1v.2l-.12.03v.03l-.04.15-.08.05h-.07l-.03.15-.03.1-.14.13v.35l-.04.1-.08.17H.67l-.18-.07-.1-.2.05-.2v-.06l-.22-.2V2.8H.1v.08l.17.48L0 3.28l.14.33.13-.03.12.05.58.2-.4.15.24.13-.35.12.2.27.06.13.18.15.13.16.06.32-.1.06-.02.1.07.04.2.13.05-.04.2-.1.1.18.15.1-.06.18h.06l.07-.1.13-.1.07-.02.1-.02v-.2l.05-.37.34.2.05.05.03.03.07.1-.02.1.04.1.03.1.02.12-.04.08-.05.1-.02.1-.06.1-.08.1h-.06v.08l-.06.13-.04.02v.18h.16l.07-.05.2-.24-.08.1-.02-.07V6.5l.12-.2.14-.04h.18l.14.08.2.08-.06.22v.07l.02.14v.04l.03.03.94.37-.76.17-.24.04-.3-.05-.04.16-.15.25-.27-.15-.1-.12v-.03l-.07.07-.27.25v.08l-.02.08v.06-.03l.2.15.04-.04.14-.13.23.1.02-.1.2.2.08-.1.16.17.14.15.17.3.02.06v.03l.05.13L3.6 9h.06l.13.2.04.18v.23l-.07.08-.06.05-.1.2.18.16.07.1.04.1v.46l.07.2.06.1.05-.06.1.07.02-.02.08-.05h.17l.1.03.04.04.08.14v.03l.04.02.07.08.12-.1.1.04.04-.1h.2l.12.05.12.08.02.1.05.1.17.03.14.04.1.07.03.02v-.05h.45l.1.14.1.03.23.13v.1l.15.18-.12.27-.15.07H6.4l-.06.03v.02l-.06.08-.03.04-.18.1-.16.04-.02-.03-.1.13.17.13.3.26.7.5.26.22.7.53.56.48.15.15.42.46v.05l.04.03.13.1.13.08.12.1.1.2v.2l-.02.15-.02.06.03.15.8.54.62.52.22.16.16.2v.16l.02.07.02.07.07.15.07.28.2.2.3-.87.15-.24.16-.14.17-.1.2-.15.23-.12.2-.04.13-.04.06-.08.1-.2.27-.18.42.06.3.25.38.64.05.04.3-.03.14.03.24.08.04.02h.03l.13-.1-.12-.04-.17-.1-.1-.23.04-.25.3-.73.1-.17.2-.14-.04-.03-.3-.08-.23-.12-.18-.16-.1-.05-.3-.12-.06-.04-.08-.07-.05-.07v-.04l-.05-.06.02-.08.02-.43.04-.14.06-.14.1-.1.04-.02.1-.03h.04l-.36-.37-.16-.24-.05-.05-.2.14-.13.04-.27.04-.08-.4.08-.32.38-.6.06-.17v-.17l-.04-.08-.15-.25-.06-.2v-.1l.03-.24v-.07l-.15-.4.07-.2.14-.1.1-.04.24.02.27.08.17.07.03.04.04.07v.03l.16.1.04.02.2-.2.17-.05.17-.03.2-.05.16-.1h.2l.1.07.13.1.13.18.12.1h.02l1.86-.4.04-.2.06-.14.03-.1-.03-.17.03-.2.05-.12-.05-.02-.04-.06-.15-.24-.05-.25-.04-.55v-.1l.02-.05.13-.2.22.05.13.08.05-.1.1-.07.3-.2.1-.03h.34l.3.13.32.23.3.1.13.1.1.2.1.36.02.07.13.14.03.05.02.13.13.05-.02.2-.02.07V10l.1-.06.2.18.14.22.04.05.03.13.08.05.04.14v.12h.07l.3.15h.04l.05-.03.1-.03h.16l.04.02.86.32.02.02.2-.03h.22v-.03l.08-.06.18-.13.08-.1.13-.1.08-.04.07-.02v-.08l.1-.12.4-.36v-.14l.04-.1.08-.14.1-.15.15-.2.2.1.07.04.12.13.08.13.06.15.02.17.1.2.04.07.1.1.1.12.02.2v-.1l.1.07.08.12.07.16-.1.14-.06.06-.07.18-.1.04h.1l.16-.08.08-.02h.05l.13.04.12.08.12-.03h.16l.05-.1.07-.05v-.03l.02-.1v-.06l.1-.1.12-.1.13-.1-.27-.22-.04-.4.2-.15.1-.05v-.06l.02-.15.13-.1.04-.03.04-.3-.07-.08V9.3l.03-.07v-.08l.02-.04.03-.06.02-.03.1-.1.65-.25.04-.02-.03-.1v-.15l.03-.1.03-.46.02-.1-.08-.23-.02-.02-.07-.06-.18-.2.26-.23.04-.03.12-.06.05-.08.03-.04-.06-.07.07-.13.05-.08v-.13l.03-.1.04-.07.05-.05-.07-.04-.12-.1-.05-.17V5.7l.03-.1.15-.16.05-.2-.1-.1-.07-.08-.04-.08V4.8l.03-.02-.07-.14-.15-.4v-.26l.05-.03.03-.26.06-.2.1-.15.05-.05.03-.05v-.06l-.05-.2V2.8l.05-.17.2-.4.02-.13-.02-.06z" class="st1"/><circle cx="131.177" cy="8.706" r="5.97" class="st4"/><circle cx="131.177" cy="8.706" r="3.37" class="st5"/></svg>